<?xml version="1.0" encoding="utf-8"?>
<!-- Generator: Adobe Illustrator 21.0.0, SVG Export Plug-In . SVG Version: 6.00 Build 0)  -->
<svg version="1.1" id="Layer_0_xA0_Image_1_" xmlns="http://www.w3.org/2000/svg" xmlns:xlink="http://www.w3.org/1999/xlink"
	 x="0px" y="0px" viewBox="0 0 216 152.8" style="enable-background:new 0 0 216 152.8;" xml:space="preserve">
<style type="text/css">
	.st0{fill-rule:evenodd;clip-rule:evenodd;fill:#4C8C8F;}
	.st1{fill:#4C8C8F;}
</style>
<g>
	<path class="st0" d="M176.7,9.2c-0.7-0.4,1-0.8,1.1-0.4C177.8,9.1,177,9.3,176.7,9.2z"/>
	<path class="st0" d="M178.5,10.2c0.5,0.1,0.3,0.9,0.4,1.4C178,11.6,178,10.7,178.5,10.2z"/>
	<path class="st0" d="M181.7,14.2c0.2-1.1,0.8,0.3,1.4,0c-0.1,0.3-0.4,0.4-0.4,0.7c-0.2,0-0.5,0-0.7,0
		C182.1,14.5,182,14.3,181.7,14.2z"/>
	<path class="st0" d="M123,14.6c0,0.4-0.4,0.3-0.7,0.4c-0.1,0.3,0.1,0.3,0.4,0.4c0.1,0.3-0.1,0.3-0.4,0.4c-0.2,0-0.5,0-0.7,0
		c0.1-0.4-0.1-0.6-0.4-0.7C121.7,14.4,122.6,14.1,123,14.6z"/>
	<path class="st0" d="M120.9,17.1c0.5-1.1,0.1,1.8,1.4,1.1c1.1,0.3-0.6,0.5-1.1,0.4c0.3,0.3,0.7,0.5,1.1,0.7c-0.2,1.1-0.8-0.3-1.4,0
		C120.9,18.5,120.9,17.8,120.9,17.1z"/>
	<path class="st0" d="M89.2,17.4c0.7-0.1,0.5,1.6-0.4,1.1c0-0.2,0-0.5,0-0.7C89.1,17.9,89.2,17.7,89.2,17.4z"/>
	<path class="st0" d="M124.5,20c0.6,0.5,1,1.9,0.4,2.5C123.9,22,124.1,20.9,124.5,20z"/>
	<path class="st0" d="M184.2,20.3c1,0.3,0.4,0.5,0.4,1.4C184.1,21.7,184.3,20.9,184.2,20.3z"/>
	<path class="st0" d="M121.6,21c1.1,0.5,1.4-0.1,2.2,0.4c-0.9,0.5-1.3,0.9-0.7,1.4c-0.2,1-1.1,0-0.7-0.7
		C122.1,21.8,121.5,21.8,121.6,21z"/>
	<path class="st0" d="M121.6,23.9C122.9,22.7,123.4,24.9,121.6,23.9L121.6,23.9z"/>
	<path class="st0" d="M121.6,24.3c0.3-0.1,0.3,0.1,0.4,0.4c0.1,0.4,0.7,0.3,1.1,0.4c0.5,0.8-0.9,1.4,0,1.4c-1.2,1.7-0.7-1.5-1.8-1.1
		C121.4,25.1,121.6,24.8,121.6,24.3z"/>
	<path class="st0" d="M37,27.5c0.7,0.1,0.3,1.4,1.4,1.1C38.1,30,36.5,29.1,37,27.5z"/>
	<path class="st0" d="M27.3,32.2c0.6-0.1,0.6,0.3,1.1,0.4C28.5,33.3,26.7,33.1,27.3,32.2z"/>
	<path class="st0" d="M47.8,34.4c0.7,0.3,0.7,1.4,1.8,1.4c-0.1,0.8-0.9,0.8-1.8,0.7c-0.1-0.6,0.3-0.7,0.7-0.7
		C48.3,35.2,47.4,35.5,47.8,34.4z"/>
	<path class="st0" d="M25.5,35.8C26.7,36.7,23.6,36.7,25.5,35.8L25.5,35.8z"/>
	<path class="st0" d="M8.5,43.4c-0.4,0.3-0.1,1.3-1.1,1.1C7.4,43.7,7.8,43.3,8.5,43.4z"/>
	<path class="st0" d="M12.1,45.2c0.4,0,0.7,0,1.1,0c0.2,0.8-0.7,0.5-0.7,1.1C12.1,46.2,12.2,45.6,12.1,45.2z"/>
	<path class="st0" d="M5.3,54.9c0.1-0.1,0.8-0.7,1.1-0.4C6.6,54.8,5,55.5,5.3,54.9z"/>
	<path class="st0" d="M5.3,55.6c0.8-0.2,0.5,0.7,1.1,0.7C6.1,56.8,5.6,57,4.9,57C4.8,56.3,5.2,56.1,5.3,55.6z"/>
	<path class="st0" d="M4.9,58.1c1.2-0.3,0.5,1.2,1.4,1.1c0.1,0.9-1.6-0.2-1.1,1.1c-1,0.3-0.7-0.7-1.4-0.7C4,58.9,5.5,59.5,4.9,58.1z
		"/>
	<path class="st0" d="M7.1,60.6c0.6-0.1,0.7,0.3,0.7,0.7c-0.3-0.1-0.3,0.1-0.4,0.4C7,61.7,7.2,61.1,7.1,60.6z"/>
	<path class="st0" d="M5.7,61.7c0.9-0.1,1.5,0.1,1.4,1.1c-1.5-0.2,0.5,1.1-1.4,0.7C6.3,62.8,5.7,62.6,5.7,61.7z"/>
	<path class="st0" d="M5.3,62.4C4.5,63.5,3,62,5.3,62.4L5.3,62.4z"/>
	<path class="st0" d="M8.2,70c0.2,0,0.5,0,0.7,0c-0.1,0.3,0.1,0.3,0.4,0.4C9,70.8,7.9,72,8.9,72.5C8.8,73,8,72.8,7.5,72.9
		c0.3-1.1,0.3-0.7,0-1.8C8.2,71.3,8.1,70.6,8.2,70z"/>
	<path class="st0" d="M10.3,74C11.7,73.3,8,75,10.3,74L10.3,74z"/>
	<path class="st0" d="M20.1,74.7c1,0,0.9,2,0.4,2.5c-1,0.1,0.3-2-1.1-1.4C19.6,75.4,20.2,75.4,20.1,74.7z"/>
	<path class="st0" d="M22.2,90.5c0.2,0,0.5,0,0.7,0c0,0.2,0,0.5,0,0.7c-0.2,0-0.5,0-0.7,0C22.2,91,22.2,90.8,22.2,90.5z"/>
	<path class="st0" d="M195.7,92.7C197.3,91.4,197.1,93.7,195.7,92.7L195.7,92.7z"/>
	<path class="st0" d="M202.6,92.7c0.6-0.1,0.6,2-0.4,1.4C202.5,93.8,202.6,93.3,202.6,92.7z"/>
	<path class="st0" d="M17.2,93.8c0.2,0,0.5,0,0.7,0c-0.2,0.3-0.4,0.6-0.4,1.1C16.8,94.6,16.8,94.3,17.2,93.8z"/>
	<path class="st0" d="M15,95.6c0.1-0.7,0.5,0.2,0.4,0.7C15.2,97,14.9,96.1,15,95.6z"/>
	<path class="st0" d="M19.3,95.2C18.6,96.3,17,94.8,19.3,95.2L19.3,95.2z"/>
	<path class="st0" d="M207.3,101.7c0.3,0.2,0.6,0.4,1.1,0.4c-0.1,0.5-0.6,0.6-0.7,1.1c-0.4-0.1-0.2-0.7-0.7-0.7
		C207,102.1,207.3,102,207.3,101.7z"/>
	<path class="st0" d="M206.9,104.9c0.1-0.9,1.2-0.1,1.4,0c0.1,0.6-0.6,0.9,0,1.1C207.6,107.3,207.3,105.1,206.9,104.9z"/>
	<path class="st0" d="M207.6,106.7C209.2,106.9,207.2,108.8,207.6,106.7L207.6,106.7z"/>
	<path class="st0" d="M16.1,110.3c0.6,0.3,0.1,0.7,0,1.1C15.5,111.1,16,110.8,16.1,110.3z"/>
	<path class="st0" d="M200.8,116.4c-0.1,0.6-0.6,0.8-1.4,0.7C199.6,116.7,200.1,116.5,200.8,116.4z"/>
	<path class="st0" d="M19,119.7c1,0.9,1,0.6,0.4,1.8C18.2,121.2,18.9,120.5,19,119.7z"/>
	<path class="st0" d="M22.6,123.6c0.4,0.1,0.2,0.7,0.7,0.7c0.1,0.3-0.1,0.3-0.4,0.4c-0.2,0-0.5,0-0.7,0
		C22.1,124.1,22.6,124.1,22.6,123.6z"/>
	<path class="st0" d="M146.1,125.1c0.7-0.1,1.1,0.1,1.1,0.7c-0.4,0-0.7,0-1.1,0C146.1,125.6,146.1,125.3,146.1,125.1z"/>
	<path class="st0" d="M135.3,126.9c-0.1-0.8,1.3-0.2,1.8-0.4c0.1,0.6-0.6,0.9,0,1.1C136.3,128.9,136.4,126.4,135.3,126.9z"/>
	<path class="st0" d="M190.7,127.2C189.9,128.3,188.4,126.8,190.7,127.2L190.7,127.2z"/>
	<path class="st0" d="M147.1,128"/>
	<path class="st0" d="M121.9,128.7C121.1,129.8,119.6,128.3,121.9,128.7L121.9,128.7z"/>
	<path class="st0" d="M186.7,129.4c0.8,1.4-2.2,1.6-1.8,0.4C185.8,129.9,185.7,129.1,186.7,129.4z"/>
	<path class="st0" d="M125.2,131.6c-0.3,0.5-1.2,0.5-1.8,0.7C123.4,131.5,124.3,131.5,125.2,131.6z"/>
	<path class="st0" d="M128.4,134.1c0.3,0.6,1.8-0.1,1.4,1.1C129.6,134.6,128.1,135.2,128.4,134.1z"/>
	<path class="st0" d="M140.3,134.1c0.2,0,0.5,0,0.7,0c0,0.2,0,0.5,0,0.7c-0.2,0-0.5,0-0.7,0C140.3,134.6,140.3,134.3,140.3,134.1z"
		/>
	<path class="st0" d="M22.9,136.6c0.9-0.2,1.3,0.1,1.1,1.1c-1-1.1-0.6,0.9-1.8,0.7C21.7,137,23.2,137.7,22.9,136.6z"/>
	<path class="st0" d="M58.6,137c0.4,0.1,0.2,0.7,0.7,0.7C59.1,138.7,58.2,137.7,58.6,137z"/>
	<path class="st0" d="M79.8,139.5c0.5,0.6,1.2,0.9,1.1,2.2c-0.3-0.2-0.6-0.4-1.1-0.4C79.8,140.7,79.8,140.1,79.8,139.5z"/>
	<path class="st0" d="M62.9,142.7c0,0,0-0.4,0-0.4C64.6,142.1,61.2,144.7,62.9,142.7z"/>
	<path class="st0" d="M163.7,8.1c0.4,0.1,0.2,0.4,0,0.4c0.2,0.6,0.8,0.2,0.7-0.4c0.4,0.1,0.2,0.7,0.7,0.7c0.8-0.1-0.5-1,0.4-1.4
		c1.2,0.5,2.4,1.6,3.2,1.4c0.5-0.2,0.7-0.8,0.7-1.4c-0.4,0.2-0.4,0.8-1.1,0.7c-0.3-0.4-0.5-1-0.4-1.8c0.3,0,0.3,0.4,0.4,0.7
		c0.6,0,1.4,0.2,1.4-0.4c0.5,1.3,1.8,0.3,1.8,1.4c1.1-0.2-0.3-0.8,0-1.4c1.1-0.6,1,1.8,1.4,0.7c0.6,0.5,0.8,1.4,0.7,2.5
		c1.2-0.1,1.6-1.1,2.2-1.8c0.7,0.1,0.2,1.2,0.7,1.4c-1.1,1.8-0.2,2.6,0.4,4.3c-0.6,0.1-0.7-0.3-0.4-0.4c-0.1-0.5-0.9-0.3-1.4-0.4
		c-0.1,1.1,1.2,0.7,1.8,1.1c-0.2,0.7-0.6,0.8-1.1,0.4c0,0.5,0,1,0,1.4c1.2,0,1.4-1,1.4-2.2c0.8-0.2,1,0.2,1.4,0.4
		c-0.1,0.6-0.6,0.8-1.4,0.7c0.2,0.3,0.4,0.6,0,0.7c0.8,0.8,1.5,0.6,0,1.8c0.1,0.8,1-0.5,1.4,0.4c0,0.5,0,1,0,1.4
		c-1,0.1-0.8-1.1-1.8-1.1c-0.8,0,0.1,1,0.7,0.7c-1.6,1.1-3.8,1.2-5.8,1.4c-5.4,0.7-11.2,1.7-16.2,1.4c1.5,1-0.3,0.6-1.8,0.7
		c-8.6,1-21.9,3.7-30.6,3.6c1-1,0.7-1,1.4-2.2c0.8-0.1,1.1,0.3,1.1,1.1c1.1-0.3,1.1-0.3,2.2,0c0-0.2,0-0.5,0-0.7
		c-0.4-0.6-2.3-0.3-1.1-1.4c-0.9-0.1-0.8,0.7-1.8,0.4c1.5-2-0.2-3.2,0.4-4.7c-1.8,0.2-1.4,0.7-2.9,0.7c0-0.4,0.4-0.3,0.7-0.4
		c0-0.9-0.1-1.7,0.4-2.2c0.9-0.1,0.8,0.7,1.8,0.4c-1.1-0.5-0.1-1-0.4-2.5c0.6,0.6,1.6,1.6,0.7,2.5c1-0.4,1-1.6,2.9-1.1
		c-0.7-0.7-0.8-1.5,0.4-0.7c-0.2-0.3-0.4-0.6-0.4-1.1c-2.2,0-1.3,1.2-2.5,1.1c-0.9-0.1-0.1-1.2,0-1.4c-0.4-1.2-0.9,0-1.4-1.1
		c-1.2,0.6-0.5,2.4-1.4,2.5c-0.2-0.7,0.6-2.5-0.7-2.2c0-1.4,2.8,0.3,1.4-1.4c1.1-0.1,3-1.2,4.3-0.4c0.2,0.1,0.1,1,0.4,1.1
		c0.8,0.3,1.8-0.1,2.5,0c0,0,0,0.7,0,0.7c1.1,0.1,2.6-1.5,2.9,0.4c0.8,0.1,0.2-1.3,0.4-1.8c0.8,1.1,0.2,0.1,1.4,0
		c0.6-0.1,0.7,0.3,0.7,0.7c1.3,0.7,2.1-1.7,2.2,0c0.5-0.1,0.3-0.9,0.4-1.4c1.2-0.3,0.5,1.2,1.4,1.1c0.3-0.2,0.6-0.4,1.1-0.4
		c-1.6-0.9,0.7-0.6,0.4-2.2c1.7-0.3,2.5,0.3,3.6,0.7c-0.3,0.6-0.7,0.1-1.1,0c0.8,1.5,1.2,1.4,2.9,2.2c-0.3,1-0.5,0.4-1.4,0.4
		c0.8,0.7,0.3,2.7,1.8,1.8c-1.5,0.8,0.2,1.1,0.4,2.2c1.2-0.3,0.7-0.3,1.4,0.4c0.3-0.6,1.1-0.5,1.1-1.4c0-0.9,0.3,1.1,0,2.5
		c-0.7,0-0.5-1-1.4-0.7c0.8,1.3,0.6,1.8,0.4,3.2c1,0.1,0.9-1,1.4-1.4c0-0.4-0.4-0.3-0.7-0.4c0.3-0.6,0.9-1.1,1.1-1.8
		c1.1,0,1.3,0.8,1.8,1.4c0.8,0,0.2-1.5,0.4-2.2c0.8,0.2,0.3,1.9,1.8,1.4c-1.4-2.2,0.8,0.1,1.4-0.7c0.7,0.6,0.8,1.5,0,1.8
		c0.1,0.8,1-0.5,1.1,0.7c-0.6-1.4,1.1-0.6,0.4-2.5c0.6,0.5,1.4,0.7,1.4,1.8c0.3-0.2,0.6-0.4,1.1-0.4c0-0.6,0.2-1.4-0.4-1.4
		c0.3-1,0.8,0.8,1.4,0.7c-0.2-0.6,0-1.9,1.1-2.9c-1.2-0.6-0.8-0.5-0.7-2.2c-0.6,0.9-0.9,0.6-0.4-0.4c-0.6-1-2.1,0-2.2,0.7
		c-0.6-0.9,0.6-1.2,0.4-2.5c0.3-1.1,0.5,0.6,0.4,1.1c1.7-0.2,0.7-1.9,1.4-3.6c0.6,0.6,0.5,1.9,2.2,1.4C163.6,9,163,8.8,163.7,8.1z
		 M164.8,12.8c0.9-0.4-0.4-1.7-0.7-0.7C164.5,12.1,164.4,12.7,164.8,12.8z M165.5,12.8c0.2,0,0.5,0,0.7,0c0-0.2,0-0.5,0-0.7
		c-0.2,0-0.5,0-0.7,0C165.5,12.3,165.5,12.5,165.5,12.8z M163.3,14.2c0.9-0.4,1.5,1.1,1.4-0.4C164.9,13.3,163.4,13.9,163.3,14.2z
		 M126.6,18.5c0.4,1.2-0.3,1.5,0.4,2.2c0.1-0.4,0.4-0.2,0.7,0c0.3-0.3,0.8-2.3,0-2.5C127.6,18.6,127.1,18.6,126.6,18.5z M154.7,19.2
		c0-0.2,0.1-0.4,0.4-0.4c0.1,0.3,0,0.7,0.4,0.7c0.5-0.4,0.3-1.5-0.7-1.4C154.8,18.8,154.2,19.1,154.7,19.2z M151.5,20
		c0.7,0,1.2-0.2,1.4-0.7c-0.4-0.1-1,0.1-1.1-0.4c0-0.2-0.1-0.4-0.4-0.4C151.5,19,151.5,19.5,151.5,20z"/>
	<path class="st0" d="M159.4,7.7c1,1.5-2.1,0.5-1.4,2.2C156,9,159.1,8.6,159.4,7.7z"/>
	<path class="st0" d="M116.5,11c1.8,1.3,4.5,1.7,2.9,4.7c0.5,0.4,0.6,1.4,1.1,1.8c-1,1.6-0.9,1.9-0.4,3.2c0.9,0.1,0.8-0.7,1.8-0.4
		c-0.3,0.6-1,0.9-0.7,2.2c-1.3-0.3-1.8,0.4-1.8,1.4c-0.6,0.1-0.7-0.3-0.7-0.7c-0.2,1-0.5,0.7-1.1,1.8c1.2,0.7,1.4-0.6,3.2-0.4
		c-0.5,0.5-0.2,1.1,0.4,1.4c-0.8-0.3-1.1,1-2.5,1.1c-0.2-0.8,0.2-1,0.4-1.4c-1.5-0.8-1.8,1.3-3.2,0.4c-0.1,0.6,0.3,0.7,0.7,0.7
		c-1.2,1.5-2.8,0.4-4.3,1.4c1.1-0.8,0.1-0.2,0-1.4c-2.4,2.6-8.8,2.1-14.4,3.2c0.1-0.8-0.1-1.4-0.7-1.4c0.1,0.3-0.1,0.3-0.4,0.4
		c0.2,0.4,0.8,0.4,0.7,1.1c-1.3-0.7-1.2,0.9-3.2,0.4c0.3-1.1-0.4-1.3-0.4-2.2c-1.6,0.2-0.8,1.2-0.7,2.5c-3.2-0.1-6.5,1.3-9,0.7
		c0.4-0.9,1.1-2,0-2.5c0.2-0.9,1.8-0.2,1.4,0.7c0.8-0.3,1-2.2,0.4-2.9c-0.9,1.3-2.7-0.2-2.9-1.8c-1.2,0-2.6,0.7-4,0
		c0.4-1.1,1.4,0.5,1.8-0.4c-1.1-0.9-0.4-2.3,0-3.6c0.4,1.4,1.1,0.4,1.8,1.4c-0.1-0.3,0.1-0.3,0.4-0.4c-0.2-0.4-0.8-0.4-0.7-1.1
		c1.2-0.4,1.2,0.5,1.1,1.4c1.4-0.5,0.9-0.7,2.2,0c0.6-0.8,0.8-2.1,0.7-3.6c1.4-0.1,0.9-0.2,2.2-0.7c0,0.5,0,1,0,1.4
		c1.3-0.3,1.9-1.4,3.2-0.7c0.4,0.1,1.2-1,0.4-1.1c0-1.3,1.2,0.8,1.1-0.4c0.8,1.8,2.5,0.6,4.3,1.4c0.3-0.3-0.1-1.6,1.4-1.4
		c-0.3-1-1.3,0.7-1.4-0.7c-1.6,0.1,0.4,1.7-1.1,1.4c-0.4-1.7,0.5-2.2,0.7-3.2c0.5,0.5,2.2,0.6,2.2-0.4c0.4,0.1,0.3,0.7,0.4,1.1
		c0.7-0.2,0.9-0.8,1.8-0.7c0,0.4,0,0.7,0,1.1c0.9,0.4,1.5-1.1,1.4,0.4c1.4-0.1,1.5-1.4,2.9-1.4c0.3,1.3,0.9,0.2,1.8,1.1
		c1.2-0.7-1.1-2.7,1.1-2.5c-0.2,3.2,3-1.1,3.2,1.8c0.9-0.3,1.6-0.8,2.9-0.7c-0.1-0.4,0.1-0.6,0.4-0.7c-0.4-0.4-0.7-0.7-1.1-1.1
		c0.4-0.9,1.6,0.3,1.4,1.1c0.6-1.4,1.7-0.3,2.2-1.4C117.5,11.7,116,12.4,116.5,11z M100,20c0.1-0.5,0.5-0.7,0.4-1.4
		c-0.4,0-0.7,0-1.1,0C99.3,19.2,99.5,19.7,100,20z M93.9,23.6c0.5-1-1-1.8-1.1-1.1C93.6,22.4,93.2,23.5,93.9,23.6z M84.9,23.6
		c1-0.6-0.5-1.2-0.7-0.4C84.5,23.2,84.6,23.5,84.9,23.6z M116.5,23.9c0.8,0.1,1.4-0.1,1.4-0.7C117.2,23.1,116.6,23.3,116.5,23.9z
		 M82.7,24.6C82.1,23,81,25,82.7,24.6L82.7,24.6z M114.7,26.1c-0.1-0.7,0.4-0.8,0.4-1.4c-0.7,0.1-0.8-0.4-1.4-0.4
		C113.8,25.1,114,25.8,114.7,26.1z M100.3,25.7c0.1-0.8-0.3-1.1-1.1-1.1C99.2,25.4,99.6,25.8,100.3,25.7z M84.9,25
		c-0.3-0.3-1,0.3-1.1,0.4C83.4,26,85.1,25.3,84.9,25z M97.1,26.1c-0.1,1.1,2.1-2.3,0.7-0.4C97.6,26,97.2,25.6,97.1,26.1z M93.5,27.5
		c1.1-0.6-0.5-2.2-1.1-1.1C93.1,26.5,92.7,27.6,93.5,27.5z M95.3,29.3c0-1,1-0.9,1.4-1.4c-0.7,0-0.5-1-1.4-0.7
		C95.8,28.2,94.3,29,95.3,29.3z M90.3,29c0.5-0.5,0.5-1.3-0.4-1.4C89.4,28,89.4,28.9,90.3,29z M98.2,28.6c0.1-0.5,0.6-0.6,0.7-1.1
		C98.2,27.2,97.3,28.5,98.2,28.6z"/>
	<path class="st0" d="M183.9,13.5c0.2-0.8,1.6,0.7,0.7,1.1C184.1,14.5,184.5,13.5,183.9,13.5z"/>
	<path class="st0" d="M159,16c-0.1,0.5-1.1,0.1-1.1,0.7C157,16.6,158.3,15.7,159,16z"/>
	<path class="st0" d="M184.9,25.4c1.1,1.6,4.7,2.3,4,3.6c1.1,0.2,1-0.9,1.4-1.4c0.9,0.2-0.4,2.5,1.4,1.8c0,0.7,0,1.4,0,2.2
		c0,0.7,1.2,0.2,1.1,1.1c1-1.6,0.1,0.8,1.8,0.4c-0.8,1.1-0.9,3.6-2.5,3.2c-0.3,1.5,0.6,1.8,1.8,1.8c-0.1,1.2-0.4,1.9,0.4,2.9
		c-0.8,0.7-1.3-1.1-0.7,1.1c-1.4-0.2-1.5-0.3-2.5,0.4c0.5,0.7,1.6-0.4,2.5,0.4c-0.1,0.7-1,0.7-1.1,1.4c0.2,1.1,0.8-0.3,1.4,0
		c-2.2,0.7,1.7,2.5-0.4,1.8c0,0.7,0.2,1.2,0.7,1.4c0.4-0.1,0.3-0.7,0.4-1.1c0.6,0.5,0.8,1.4,0.7,2.5c-1.7-0.2-1.8,1.3-1.8,2.9
		c-0.9-0.2-1.3,0.1-1.1,1.1c0.4,0.2,0.2-0.6,0.4-0.7c0.3-0.1,0.4,0.9,0,1.1c-0.7,0.3-0.9-0.7-1.1-0.7c-0.9,0-0.5,2.1-1.4,0.4
		c-0.7,0.8,0.9,1.4,0,2.9c1-0.1,0.4-1.7,1.8-1.4c-0.1,0.5-0.6,0.6-0.7,1.1c1.7-0.1,2.4-0.7,1.8,1.1c0.2,0,0.5,0,0.7,0
		c0.8-0.1-0.5-1,0.4-1.4c0.7,0.1,0,1.6,1.4,1.1c-1.5,2.1,0,1.2-1.8,3.6c0.6,1,0.6,2.6,2.2,2.5c-0.2,0.3-0.8,1.3,0.4,1.1
		c0,0.9-1.4,0.5-1.4,1.4c1.3,0.7-0.7,1.8,1.1,2.5c-0.7,0.4-1.3,0.9-2.2,1.1c-0.6,1.8,1.4,1.8,0,2.5c0.3,0.5,1.2,0.5,1.8,0.7
		c-0.2,0.9-1.4,0.8-2.2,1.1c0,0.6,0,1.2,0,1.8c1.8,1.7,1-1.2,3.2,0c-0.2,0.7-1.2,1.5,0,1.8c-0.1,0.9-0.6-0.5-1.4,0
		c0.1,0.7-0.4,1.3-1.1,2.2c0.5,0.1,0.8,0.6,1.8,1.1c0.1,0.8-1,0.4-1.1,1.1c-0.5-0.1-0.3-0.9-0.4-1.4c-0.7,0.1-0.2,1.2-0.7,1.4
		c0.5,0.9,2.6,1.4,1.4,2.9c0.6,0,0.8-0.4,1.4-0.4c0.1,0.9,1.1,1.1,1.1,2.2c-1.8-0.5-0.6,2-2.2,1.8c-0.1,0.9,0.6,1.1,1.1,1.4
		c0.5-1.1,1,0.1,1.4-1.1c0.5,0.1-0.3,1.8-1.4,1.4c1.2,0.8,0.9,1.2,0.7,2.9c-0.5-0.4-0.7-1.2-0.7-2.2c-0.4,0-0.7,0-1.1,0
		c-0.1,0.8,0.3,1.1,1.1,1.1c-0.1,0.3-0.4,0.4-0.4,0.7c-0.3-0.1-0.3,0.1-0.4,0.4c0.1-1.7-1.8-0.2-1.8-1.8c-0.5,0.1-0.3,0.9-0.4,1.4
		c-1.4-0.6-1.5-0.3-2.2-1.4c-0.4,0.1-0.3,0.7-0.4,1.1c0.1,0.5,0.9,0.3,1.4,0.4c0,0.9,0.1,1.7-0.4,2.2c-0.6-0.8-1.2-0.6-0.7-1.8
		c-0.6,0.2-1.5,0.2-1.8,0.7c-0.6-2.4-1.2-4.9-0.7-8.3c-0.4,0.1-0.3,0.7-0.4,1.1c-0.2-1.4-1.8-7.5-1.8-10.1c0-0.3,0.4-0.6,0.7-0.7
		c-1.3-2.9-0.8-5-1.8-8.3c1.3,0.8,1.1,1.7,1.4,2.9c0.4-1.2,1.6-2.1,1.1-3.2c0.9,1,0.5-1,1.4,0c-0.7-0.9-2-0.9-3.6-0.7
		c-0.6-1.2-1.2-2.7,0-4c-0.3-0.3-0.7-0.5-1.1-0.7c-0.5-4.7-0.8-7.8-1.8-12.2c1.7-1.2-0.5-1.8,1.8-2.2c-0.3-0.7-1.1-0.2-0.4-1.1
		c-0.3,0.2-0.6,0.3-0.7,0.7c-0.5-0.3,0.1-0.5-0.4-1.4c0.3,0.2,0.6,0.4,1.1,0.4c-0.6-0.3-0.6-1.3-1.8-1.1c0.3-1.1-0.6-1.1-0.4-2.2
		c0.9,0.5,1.5-1.1,1.8,0c0.3-0.3,0.2-0.9,0.4-2.2c-0.3,0.3-1,0.2-1.1,0.7c-0.3-0.2-0.5-1-0.7-0.4c-0.3-0.4,1.6-2.2,0.4-3.6
		c1.3,0.1,2.2,0.1,2.5,0.4c0.4,1.2-1.1,0.6-1.8,0.7c-0.2,0.8,0.2,1,0.4,1.4c1.2-0.2,0.9-1.4,2.2-0.7c0.1-1-0.9-2.2,0.4-1.4
		c0-0.2,0-0.5,0-0.7c-0.2-0.9-1.7-0.1-1.8,0.4c-0.4-1-1.7-1.1-2.5-1.8c0.7,1.6,0.2,2.3,0,4c-1.6-4.5-1.3-11.9-2.9-17.3
		c0.2-0.7,1.8-0.1,1.4-1.4c1.8,2.1,2,4.6,2.2,6.8c1.1-0.4,1-0.2,1.4,0.7C186.4,26.3,184.9,26.4,184.9,25.4z M184.2,26.8
		c0,0.5-0.2,0.8-0.4,1.1c1,0,0.7-0.6,1.4,0c-0.1-0.6,0.5-0.9,0-1.1C185.2,27.4,184.8,26.7,184.2,26.8z M187.8,69.6
		c-0.1,0.5-0.6,0.6-0.7,1.1C187.8,71,188.7,69.8,187.8,69.6z M181,23.9c1,0.5,1-1.6,0-1.1C181,23.2,181,23.6,181,23.9z M183.5,29.3
		c0.2,0,0.5,0,0.7,0c0-0.2,0-0.5,0-0.7c-0.2,0-0.5,0-0.7,0C183.5,28.8,183.5,29.1,183.5,29.3z M184.6,33.6c-0.3-0.7-0.4-1.7-1.4-1.8
		c0.5,0.8-0.1,1.6,0.4,1.8c0.1-0.3,0.3-0.4,0.7-0.4C184.2,33.7,184.4,34.2,184.6,33.6z M185.7,42.6c-0.2-0.7,2-0.8,0.7-1.4
		c-0.1,0.5-0.8,0.4-1.1,0.7c0-0.2-0.3-0.4-0.4,0C185.4,41.9,185.3,42.6,185.7,42.6z M188.9,45.2c0.8,0.2,1.7-2.1,0.4-1.8
		C189.4,44.2,189.2,44.7,188.9,45.2z M190,58.5c0-0.6-0.3-0.9-0.7-1.1C189.2,58,189.5,58.3,190,58.5z M187.5,61.4
		c0.1-0.3,0-0.7,0.4-0.7c0,1.1,0.8,1,1.1,2.5c-0.4,0-0.4,0.3-0.7,0.4c-0.4-0.4-1.4-2-1.8-1.1c-0.4,1.6,1.2,0.8,1.1,0.7
		c0.2,0.2,0.4,1.8,2.2,1.4c-1.1-1.7,0.8-1.3,1.4-2.2c-1.1-0.2-1.9-0.7-2.2-1.8c-0.6,1.3-0.5-0.8-1.4-0.4
		C187.4,60.7,186.8,61.1,187.5,61.4z M189.6,61c0.1,0.3,0,0.7,0.4,0.7c0.1-0.4,0.4-0.2,0.7,0c0-0.6-0.3-0.9-0.7-1.1
		C190,60.9,189.9,61.1,189.6,61z M190,67.1c-0.2,0-0.4-0.1-0.4-0.4c0.2,0,0.4-0.3,0-0.4C188.9,66.7,189.5,68.2,190,67.1z
		 M188.9,71.1c0.1-0.3,0.3-0.4,0.7-0.4c0-0.7-0.2-1.2-0.7-1.4C189.4,70.2,188.1,71,188.9,71.1z M190.3,75c0.3-0.8-1.7-1.1-0.4-1.8
		c0.3,0.5,0.5,1.1,1.4,1.1c0.6-1-1-2.1-1.1-3.6c0.5,0.1,0.7,0.6,0.7-0.4c-0.4,0-0.7,0-1.1,0c0.2,1.6-0.4,2.5-1.8,2.5
		c0.6,0.9-0.4,1.3,0.4,1.8C189,73.2,189.6,74.8,190.3,75z M189.6,75.8c-0.1-0.3-1-0.4-1.1,0C188.3,76.6,189.9,76.5,189.6,75.8z
		 M191.4,79c0.8-0.8,0.7-1.4-0.4-1.8C191.3,77.7,190.6,79.1,191.4,79z M194.3,83.7c0.2,0,0.5,0,0.7,0c0-0.2,0-0.5,0-0.7
		c-0.2,0-0.5,0-0.7,0C194.3,83.2,194.3,83.4,194.3,83.7z M191.1,90.2c0.9-0.9-1.2-0.9-1.1-0.4"/>
	<path class="st0" d="M78.7,23.2c-1-0.2-1.4,1.2-2.9,1.4c0.4,1,1-0.5,1.4,0.4c-1.7-0.1-0.7,2.6-2.9,2.2c-0.1,0.8,0.1,1.4,0.7,1.4
		c0.4-0.5,1-0.9,1.1-1.8c0.7,0.1,0,1.6,1.4,1.1c0.5,1.6-0.5,2.4,0.4,3.6c-0.2,0.1-1.8,0.4-0.4,1.1c-5.1,0.9-11.5,1.6-15.8,2.2
		c-1.1-1.2-0.1-1.6,0-3.2c-0.8-0.3-1,0.2-1.1-1.4c-1.1-0.3-1.3,0.4-2.2,0.4c0.3,1.5,1.5,1.7,2.2,1.4c1.3,0.9-1.9,0.2-1.4,1.4
		c-0.8-0.5,0.1-2.8-1.8-2.2c-0.4-0.8,2.3-0.7,0.4-1.4c0.7-0.4,1.5-0.7,1.1-2.2c0.6-0.1,1.8,0.4,1.4-0.7c-0.1-0.5-2,0.5-2.2-0.7
		c-0.3,0.1-0.4,0.4-0.7,0.4c-0.1,1.1,1.2,1.4,0.4,2.2c-0.9,0-0.4-0.3-0.4-0.7c-0.4-0.1-0.6,0.1-0.7,0.4c-1-0.2,0-1.1,0.7-0.7
		c-2.1-0.4,0.7-1.8,0.4-2.5c-0.7-0.8-2.7,0.8-2.2,1.4c-1.2,0.2-0.6-0.7-0.4-1.1c-1.5,0.4-0.4,2.5,0.7,2.5c0.3,0.5-3.9-0.6-2.9,0.4
		c-0.6,1.4-0.6-0.8-1.1-0.7c0.4-0.2,1.9,0.1,2.2-1.1c-1.1,0.3-0.2-1.5,1.1-1.8c-0.1-1.6,0.4-2.4,1.8-2.5c0.4,1,2.6,2.2,3.6,1.4
		c-0.2-0.5-0.5,0.1-1.1,0c-0.3-1.3,1.6-0.3,1.4-1.4c0.7,0,0.2,1.2,1.1,1.1c-0.2,0.4-1.4-0.3-1.1,1.4c0.7,0,1.2-0.2,1.4-0.7
		c1.6,0.1-0.5,1.9,0.4,2.2c-0.1,0.7-1.6,0.1-1.4,1.1c0.4,1.6,2.5-0.7,2.2,1.4c1.2-0.8-0.3-2.4,0-4c2.1,0.1-0.2-2.1,1.8-2.2
		c-0.4,1-0.6,2,1.1,1.8c0.8-0.5,0.3-2.7-0.4-2.9c0.5-0.8,2.4,0.2,3.2,0.4c0.3,1-0.7,0.7-0.7,1.4c2.2-0.2,1.8-3,4.3-2.9
		c-1.1,2,2.6-0.2,1.8,2.9c1.3,0.3,0.4-1.6,1.1-1.8c1,2.4,2.1-0.9,4,0.4c-0.4,0.4-1,0.7-0.7,1.8C78.5,23.7,78.4,23.2,78.7,23.2z
		 M59.3,28.6c1.1,0.5,1.3-0.2,1.8,1.1c0.1-0.8,1.6-0.3,1.8-1.1C61.7,28.4,60.1,27.2,59.3,28.6z M64.3,31.5c0-0.5,0.6-0.3,0.7-0.7
		c-0.4-0.1-0.4-0.6-0.4-1.1c-1.2,0.7-0.9,0.7-2.2,0c-0.1,0.9-0.1,1.7,0.7,1.8c-0.2-1,0.7-0.7,1.1-1.1C64.5,31,63.8,31.3,64.3,31.5z"
		/>
	<path class="st0" d="M119.8,23.9C120,21.5,121.8,25.3,119.8,23.9L119.8,23.9z"/>
	<path class="st0" d="M55.3,28.2c-0.8,0.6-1,1.2,0.4,0.7c0.8,0.4-2.5,1.3-2.2-0.4C54.6,28.9,54.5,28.1,55.3,28.2z"/>
	<path class="st0" d="M29.4,32.2c0.1-0.4,0.4-0.2,0.4,0c0.6,0,0.9-0.3,1.1-0.7c0.4,0.2,0.7,0.5,0.7,1.1c0.6-0.7,1.3-1.3,1.4-2.5
		c1.7,2.4,3.5-0.3,6.5,0.4c-0.3,0.7-1.3,1.3-1.8,0.7c-0.5,0.2-0.7,0.8-0.7,1.4c0.6-1.6,1.2,0.5,1.4,0.4c1.3-0.5-0.2-1,0.7-1.8
		c-0.2,0.1,1.4,1.1,1.1-1.1c0.4,0,0.7,0,1.1,0c0.2,1.6-1.1,0.8-0.4,2.2c-0.9-0.1-0.9,0.8-1.4,1.1c0.3,0.3,0.7,0.5,1.1,0.7
		c0.5,0,1.4-1.4,0.7-1.4c0.6-0.9,1.9,0.4,1.8,1.4c-0.8,0.2-0.5-0.7-1.1-0.7c-1.1,0.3,0.2,1.2,0,1.8c0.9-0.5,2.5,0.2,1.8-0.7
		c0.3,0,2.5-0.3,2.2,1.1c0.6-0.3,0.6-1.6,1.4-0.7c-0.6,0.5-1,1.2-1.1,2.2C39.2,37.4,32,39.5,25.1,39c1.9,1.2-2.3,0.5-3.2,1.1
		c0.3-1.1-0.6-1.5,0.7-2.5c-0.6,0.5-2.7,1.4-1.8,2.2c0.8,1.3-1.3-1.2-1.4,0c-1.4-0.5,0.7-2.3,0-2.2c0.2-0.5,0.5,0.1,1.1,0
		c0.2-0.9-0.1-1.3-1.1-1.1c0.3-0.5,0.5-1.1,1.4-1.1c-0.1,0.6,0.3,0.6,0.4,1.1c0.5-0.1,0.4-0.7,0-0.7c0.3-0.7,2,2.6,2.9,0.4
		c-0.7-0.7-0.7-0.3,0-1.1c-0.7-0.9-1.5-0.2-2.2-0.7c0.4-0.5,1.4-0.5,1.4-1.4c0.5,0.3,1.1,0.5,1.1,1.4c1.2-1,3.6-1,5.8-1.1
		C29.8,33,29.9,32.3,29.4,32.2z M33,31.5C32.6,33.6,34.6,31.6,33,31.5L33,31.5z M25.5,35.8L25.5,35.8 M25.5,37.6
		c-0.7-0.6-3.4-0.4-2.2,0.7"/>
	<path class="st0" d="M20.8,74c-1.3,0.9-3,1.3-3.6,2.9c-1.3,0.2-2.8-1.2-3.2,0.4c-0.6-0.1-0.8-0.6-0.7-1.4c-0.6,0-0.9,0.3-1.1,0.7
		c-0.5-0.4-0.8-1.4-0.4-1.8c-1.2,0.4,0.1,1.2-1.4,1.4c0.7,0,1.5,1.8,1.8,1.1c0.8,0.5-0.4,0.8-1.1,0.4c0.7,0.9,1,2.1-0.4,2.5
		c0.4,1.4,2.1-0.7,1.8,1.4c0.5,0.1,1.1-1.5,1.4-0.4c0.5-0.2,0.7-0.8,0.7-1.4c0.8,0.1,1.8,0.4,1.1,1.1c0.6,0.1,0.6-0.3,1.1-0.4
		c0.3-1-0.5-0.9-0.4-1.8c0.7,0.5,1.7,0.7,2.5,1.1c-0.2-0.3-0.4-0.6-0.4-1.1c-1.4,0.7-0.8-0.3-1.8-0.7c0-0.7,1-0.5,0.7-1.4
		c0.3,0.2,0.6,0.4,0.7,0c0.3,1,0.7,1.9,2.5,1.4c1.1,2.3,0.3,3.7,0.7,6.8c-1.2-0.3-1.2-1.9-1.8-2.9c-0.5,0.4-0.2,1.5,0,2.9
		c-1.2-0.5-0.8-0.5-1.8-0.7c-0.4,0.3,0.2,1-1.4,0.7c0.3,0.6,0.8,1.1,1.4,1.4c0.1,0.9-1.4,0.3-1.1,1.4c0.2-0.8-1.9-3,0.4-3.2
		c-1.3-1.5-2.3,0.2-3.6,0c0,2,0.9,1.6,2.5,1.4c-0.2,0.7-0.1,1.5-1.1,1.4c0.4-2-1.4,0-1.8-1.4c-0.8,0.3-0.9,1.3-1.4,1.8
		c2.8-1.3,0.8,2.2,3.2,1.1c0.6,0.9-1.1,1.6,0.7,2.2c-0.1,0.7-1.2,0.2-1.4,0.7c0.3,1.1,0.3,0.7,0,1.8c0.8,0.2,0.7-0.5,0.7-1.1
		c0.9-0.1,0.3,1.4,1.4,1.1c0.1,0.8-1,0.4-1.1,1.1c2.4,0.4,0.2,2.5,1.4,4c1.3-0.1-0.7-1.6,0.4-1.4c1.1-0.4,0.6,0.8,0.7,1.4
		c1.6-1.7,1.6,1.3,3.2,0.4c-0.7,0.2-0.1,2.5,0,0.7c0.8,0,0.2,1.5,0.4,2.2c-0.4,0-0.7,0-1.1,0c0.4,0.3,0.1,1.3,1.1,1.1
		c-0.1,0.7-1.3,0.3-1.4,1.1c0.8,0.4,1.7,0.7,2.5,1.1c-0.4,0.3-0.1,1.3-1.1,1.1c0.2,0.5,0.5,0.9,0.7,1.4c0.9-0.1-0.5-0.6,0-1.4
		c1.3,0.5,1.1,0.6,2.9,0.4c0.3,4.5,1.1,11.3,2.2,16.2c-0.2,1.1-0.8-0.3-1.4,0c2.3,2.8,2.2,7.6,2.5,11.5c-0.3,0.7-0.4-0.2-0.4-0.7
		c-0.4-0.7-1.6-0.6-1.4-1.8c-0.6,0.4-0.3,1.7-1.1,1.8c-0.2,1.3,2.8,2.8,2.9,1.4c0.2,0.5-0.1,3.5-1.4,3.6c-0.5-1.1,0-1.5,0.7-2.2
		c-0.3-0.5-0.9-0.8-1.8-0.7c-0.1-0.7-0.9-3.6-2.9-3.6c0.1-0.6,0.6-0.8,1.4-0.7c-0.2-0.5-0.8-0.7-1.4-0.7c0.2,0-1.1,2.5,0.4,2.5
		c-0.2,0.3-0.4,0.6-0.4,1.1c-0.6-1.2-1.5-1-1.4-2.2c0.3,0.4-1.6,1.4-0.7,2.2c-0.7,0.4-2.3-1.3-1.8-3.2c0.7,0,0.5-1,1.4-0.7
		c-0.1-1.2-1.9-0.7-1.8-2.2c2.4,0.2,0-2.4,2.2-2.5c0.5,0.5,0.5,1.7,0,2.2c1.2,0.3,1.5-0.4,2.2-0.7c0-0.5,0.1-1-0.4-1.1
		c0.3-1.1,1.2,0.2,1.8,0c0.8-0.3-0.1-2.2,1.4-1.8c-0.1-0.7-0.7-1-1.1-1.4c-0.7,0.1-0.2,1.2-0.7,1.4c-1.1-1.1,1-1.8,0.4-3.2
		c0.3,0.2,0.6,0.3,0.7,0.7c0.7,0,0.2-1.2,1.1-1.1c-0.2-0.3-0.3-0.6-0.7-0.7c-0.4,0.1-0.2,0.4,0,0.4c-0.1,0.6-0.6-0.3-0.7,0.4
		c-1.1-0.6,0.5-2.2,1.1-1.1c0.8-0.1-0.5-0.9,0-1.8c0,1.4-2.1,0.5-1.8,2.2c-0.2-0.5-1.4-0.1-1.4-0.7c-0.5,0.2,0.3,1.1-0.7,1.4
		c0,0.6,1.7-0.6,2.2,0.4c-1.2-0.1-1.7,0.5-2.5,1.4c-0.1-0.3,0.1-0.3,0.4-0.4c-0.2-0.5-0.5,0.1-1.1,0c0.9-1,0.7-2.2-0.7-2.2
		c0.2-0.6,0.2-1.5,0.7-1.8c-0.1-0.6-1.3-1.7-1.8-0.7c-0.9-0.3,0.2-2.6-1.4-2.2c-0.2-1,0.7-0.7,1.1-1.1c-0.1-0.5-1.1-0.5-1.1,0
		c-0.7-0.9,1.3-3-0.7-3.6c1.8,1,0.5-2.3,3.6-2.2c0.3-1.6-1.8-0.8-1.8-2.2c-1.1,0.1-0.5,1.3,0,1.8c-0.3,0.8-1.4-0.7-1.1-1.8
		c-0.5,0-1-0.1-1.1,0.4c0.5-1.2-1.1-0.9-1.4-1.4c-0.4-0.6,0.3-2-1.1-2.2c0.1-0.5,0.6-0.6,0.7-1.1c-0.1-0.6-0.6-0.8-1.4-0.7
		c-1.1-1.5,1.3-4.3-0.4-4c-0.7,0,0.2-1.7,0.7-0.7c0.4-1.2-1.2-0.3-0.7-1.4c0.9-0.1,0.8,0.7,1.8,0.4c0.4-1.5-2.1-1.9-2.5-1.4
		c-0.7-0.2-1-1-1.1-1.8c1.3,0,1,0.4,2.2,0c0.2-0.8-0.2-1-0.4-1.4c-0.4,0.2-0.7,0.5-0.7,1.1c0-0.7-1.6-0.7-1.8-1.1
		c-0.2-0.3,0.7-0.6,0.7-0.7c0.1-0.7-1.9-2.6-0.7-4c-0.7-0.1-1.1,0.1-1.1,0.7c-0.8-0.5,0.6-1.8,1.1-2.2c-0.4-0.1-1.2-0.5-2.2-1.1
		c0.6-1,0.5-3.1,2.2-2.2c-0.6-2.5-1.6-2.4-2.2-5c0.6,0,1.2,0,1.8,0c-0.2-0.3-0.4-0.6-0.4-1.1c-1.1-0.2-1,1.2-1.8,0.4
		c0.2-0.8,1.6-1,0.7-1.8c-0.4,0.4-0.7,0.7-1.1,1.1C7,74.6,6.9,74.1,6.4,74c-0.3-1.2,1-2.6,1.1-3.6c0-0.3-0.7-0.9-0.7-1.1
		c0-0.3,1.1-1.9-0.7-1.4c0.4-0.5,1-0.7,1.1-1.4c0.4,0.1,0.2,0.7,0.7,0.7c0.7-0.4,0.3-1.9,0.7-2.5c1.8,0.8,1.6-0.8,3.6-0.7
		c0.1,0.6-0.3,0.6-0.4,1.1c0.4,0,0.7,0,1.1,0c0.8,0,0.2-1.5,0.4-2.2c-1.4,0.4-2.5,0.1-3.6-0.7c1.1-1,1.6,0.9,3.2,0
		c0.1-0.6-0.3-0.6-0.4-1.1c-0.6,0.3-0.6,1.6-1.4,0.7c1.1-0.1,0.3-2.1,1.1-2.5c-0.5-0.8-1,0.4-1.4-0.7c0.1-0.7,1.2-0.2,1.4-0.7
		c-0.4-1-1,0.5-1.4-0.4c1.2-1.6-0.7-1.3-0.7-2.2c-0.5,1.6-1.2-1-2.2,0.4c-1.2-0.3-0.2-0.7-0.4-1.8c0.3,1.4,2.8,1.3,3.6,0.4
		c-1.5-0.7-2.6,1.2-3.6-1.8c1,0.4,2.1,1.7,2.9,0.4c-0.5-1.1-1.6,0.7-2.2-0.4c0.4-0.9,3,0.3,2.5-1.4c0.4,0,0.3,0.4,0.4,0.7
		c1-0.3,0.4-0.5,0.4-1.4c0.6-0.1,0.7,0.3,0.7,0.7c0.5-0.2,0.9-0.6,1.1-1.1c-0.3-1.2-0.7-0.2-1.8-0.4c0.3-0.3,0.4-0.8,0.4-1.4
		c0.5,0.8,0.9-0.5,1.1,0.4c0.6-1.8,2.6-2.2,2.9-4.3c-0.9-0.1-1.1,0.6-1.4,1.1c-0.7,0.3,0.5-1.2,0.4-2.2c1.1-0.3,0.4,1.2,1.8,0.7
		C17.9,52.6,19.1,64.2,20.8,74z M10.7,76.8c0,0.5-0.6,0.3-0.7,0.7c0.9-0.2-0.9,1.7,0.4,1.8C10.1,78.5,11.3,77.5,10.7,76.8z
		 M9.6,76.5c-0.3,0.6-1.2,1.1,0,1.4C9.3,77.3,10.7,76.7,9.6,76.5z M14.3,48c0.8,0.6,2,0,1.1-0.7c-0.4,1.1-0.6-0.8-1.1-0.7
		C14.3,47.6,14.9,47.3,14.3,48z M14.7,51.3c0-0.6-0.4-0.8-1.1-0.7c0,0.2,0,0.5,0,0.7 M11.4,54.5c0,0,0,0.4,0,0.4
		C9.5,56,12.6,54.7,11.4,54.5z M12.5,58.5c0.3,0.9,0.5,1.9,1.8,1.8c0.1-1.2-0.6-1.5-1.1-2.2C13.1,58.4,12.9,58.5,12.5,58.5z
		 M12.1,68.2c0.9-0.6,2,0.7,2.5-0.7C14.1,67,13,67,12.5,66.4c0-0.4,0.3-0.4,0.4-0.7c-0.4,0-0.7,0-1.1,0
		C12.2,67.1,11.6,67.2,12.1,68.2z M7.8,68.6c0.4,0,0.7,0,1.1,0c0-0.4,0-0.7,0-1.1c-0.2,0-0.5,0-0.7,0C8.2,67.9,7.7,68,7.8,68.6z
		 M17.2,68.2c0.1-0.4-1.8-0.8-0.4,0C16.9,68.2,17.1,68.8,17.2,68.2z M10.7,69.6c-1.3-0.1,1.5-0.7,0-1.1
		C10.1,68.8,9.7,70.7,10.7,69.6z M15,71.4c0.5-0.2,0.9,1.4,1.1,0.4c-0.6-0.5,0.9-2.3,0-2.5c0,0.8-2.8-0.7-1.4,0.7
		C15.7,69,15.1,70.6,15,71.4z M16.5,74.3C18.7,73.9,17.4,72.6,16.5,74.3L16.5,74.3z M16.8,75.4c0.8,0.1,1.1-0.3,1.1-1.1
		C16.9,74.1,17.2,75.1,16.8,75.4z M10.3,74C8,75,11.7,73.3,10.3,74L10.3,74z M15,74.7c0.1-0.4,0.4-0.2,0.7,0c0-0.5,0.2-0.8,0.4-1.1
		c-0.4,0-0.7,0-1.1,0C15.2,74.2,14.5,74.5,15,74.7z M19.3,99.2c0.3,0.8-1.3,1.6-0.4,1.8c0.1-0.6,0.6-0.8,1.4-0.7c0-0.2,0-0.5,0-0.7
		C20,99.5,19.9,99.1,19.3,99.2z M21.1,101c-0.7-0.7-2.2-0.4-1.8,1.1C20.3,102,20.6,101.4,21.1,101z M19.7,131.2
		c0.6,0.1,2.1-0.7,1.1-1.1C20.7,131.6,19.5,129.7,19.7,131.2z M22.9,129c-0.3,0.1-0.7,0-0.7,0.4c0.2,0,0.5,0,0.7,0
		c0.5-0.6-0.4-1.9,1.4-1.8c0-0.7-0.2-1.2-0.7-1.4c-1.1,0.7,0.3,1.6-1.4,1.4c0,0.4,0,0.7,0,1.1C22.5,128.8,22.9,128.7,22.9,129z
		 M12.5,81.9c0.1,1.3,1,0.9,0.4,2.2c2.3,0.4-0.2-3,1.4-1.8c0.1-0.8-0.3-1.1-1.1-1.1C13.2,81.6,13.1,82,12.5,81.9z M19,83.3
		c-0.4-0.5-0.4-0.9,0-1.4c-0.4,0-0.7,0-1.1,0c0,0.4,0,0.7,0,1.1C18.9,82.3,18.6,84.6,19,83.3z M10,83.3c0.9,0,1.3-0.7,1.8-1.1
		C11.2,82.6,9.8,82.2,10,83.3z M17.2,83.7c0.1,0.1-0.4-1.8-0.4-1.1C16.9,84.1,16.4,82.4,17.2,83.7z M16.8,99.9
		c0.1-0.5,0.6-0.6,0.7-1.1C16.8,98.5,15.9,99.7,16.8,99.9z M21.1,105.3c-0.6,0-0.3-0.9-1.1-0.7C19.5,105.6,21,106.2,21.1,105.3z
		 M24.4,130.5c0.1-0.8,1.7-0.2,1.4-1.4C25.1,129.1,23.4,130,24.4,130.5z"/>
	<path class="st0" d="M9.6,63.5c0.6,0.1-0.3,0.6,0.4,0.7c-0.1,0.8-1.2-0.4-1.1-1.1c-0.7,0-0.5,1-1.4,0.7c0.2,0.4,0.8,0.4,0.7,1.1
		c-1.4-0.1-0.1,0.3-0.4,1.1c-0.6,0-0.8-0.4-1.4-0.4c0.3-1.4,1.5-2.3,1.4-3.2c0.6-0.6,1.1-0.1,1.8,0C9.6,62.9,8.9,64.4,9.6,63.5z"/>
	<path class="st0" d="M8.9,45.5c0.3,0.9,1,1.4,1.4,2.2c-0.2,0.8-0.6-0.4-1.1,0.4c0.2,0.4,0.5,0.7,1.1,0.7c-0.1,0.6-0.6,0.8-1.4,0.7
		c0.2,0.8,0.5,2-0.7,2.2c-0.1-1.8,1.2-4.1,0-5.8c-1.1,0.2,0.3,0.8,0,1.4c-0.8,0.1-2.3,1-2.2-0.7c1.4,1,2-1.2,2.5-2.2
		c0.5,0.7,1.9,0.5,1.8,1.8C9.2,46.7,10.1,45.1,8.9,45.5z"/>
	<path class="st0" d="M11.4,54.9c0,0,0-0.4,0-0.4"/>
	<path class="st0" d="M7.5,56.3c0.8-0.6,1.4,1.3,2.9,0.4c-0.3,0.5-0.9,0.8-1.8,0.7C8.2,57,7.8,56.7,7.5,56.3z"/>
	<path class="st0" d="M16.1,78.3c-0.2,0.4-0.8,0.4-0.7,1.1c-0.5,0-0.5-2.3-1.1-1.1C13.7,77.1,15.1,78.2,16.1,78.3z"/>
	<path class="st0" d="M19.3,88c0.3-0.1,0.3,0.1,0.4,0.4c0.2,0.5,0.5-0.1,1.1,0c0.3,2.1-1.1,1.6,0,2.9c-0.6-0.1-0.7,0.3-0.7,0.7
		c-0.5,0-1,0-1.4,0c-0.3-0.4-0.5-1-0.4-1.8c-0.4,0-0.7,0-1.1,0c0,0.3,0.4,0.3,0.7,0.4c-0.5,1.6-1.1,0-1.8-0.4
		c0.9-0.5,1.7-1.2,2.5-1.8c-0.7,0.7,0.1,0.7,0.7,1.1C20.4,89.2,19,88.7,19.3,88z M18.6,91.2c0.4,0,0.4,0.3,0.7,0.4
		c0-0.6,0-1.2-0.7-1.1C18.6,90.8,18.6,91,18.6,91.2z"/>
	<path class="st0" d="M17.9,93.4c0-0.5,0-1,0-1.4c0.1,1,1.8,1.4,1.1,2.2C18.6,93.9,18.6,93.3,17.9,93.4z"/>
	<path class="st0" d="M205.1,92.7c1.2,0.4-0.4,0.7-0.4,1.1C203.7,93.6,205.3,93.2,205.1,92.7z"/>
	<path class="st0" d="M199.7,97.4c0.5-0.1,0.7,1.8,1.1,0.7c0.2-0.6,0.4,0,0.4,0.4c-0.5,0.6-2.1-0.6-2.2,1.1c1.1,0.9,1.6-0.8,1.1,1.4
		c0.9,0.4,0.9-1.7,1.1,0c0.6-0.3,1.1-0.9,1.8-1.1c0.1-0.7-1.6-0.5-1.1,0.4c-1.4-0.7,1.5-1.5-0.4-1.8c0.4-0.6,1-0.8,1.4-0.4
		c-0.4-1.1-1-0.1-1.8-1.1c0.3-1.2,0.8-0.3,1.4,0c0.8-0.2,0-1.9,0.7-2.2c1.2,0.3,1,1.9,1.8,2.5c1.5-0.8,2.4,0.3,2.9,1.4
		c-1.9,0.6,0.5,1.5-1.4,1.4c0.4,1.8-0.8,1.8-1.1,2.9c-0.1,0.7,1.6,0.5,1.1-0.4c1.2,0.7-0.4,1.5-1.4,1.1c1.8,0.2-0.9,3.3-0.7,1.8
		c-0.5,0.8-0.7,2.5,0.7,2.2c-0.1,0.8-1.7,0.2-1.4,1.4c0-1.4-1.4-3.5,0.7-4.3c-0.1-0.7-1.2-0.2-1.4-0.7c-0.4,1.9-1.9,0.5-2.5,2.2
		c-0.1,0.8,0.3,1.1,1.1,1.1c-0.3,1.2-0.8,0.3-1.4,0c-1,0.8-0.8,1.4,0.4,1.4c-0.9,1.5-1.9,0-2.9-0.4c0.4-0.5,0.4-1.3,0.7-1.8
		c-0.8-0.2-0.5-1.6-1.4-1.8c-0.4,0.1-0.3,0.7-0.4,1.1c1-0.1,2,2.5,0,2.2c0.3,0.9,2,0.4,1.8,1.8c-0.5-0.5-1.3-0.5-1.4,0.4
		c1.4,0.4,0.5,1.1,1.1,2.5c1.3-0.8,2.4-0.7,3.6,0c-0.2,1.1-0.8-0.3-1.4,0c-0.3,1.2,0.6,1.1,1.1,1.4c-0.2,1.1-0.8-0.3-1.4,0
		c1.5,1.7-2.2,3,0.4,3.2c-0.3,0.9-2,0.4-1.8,1.8c-1.2-0.4-1.1-0.9-0.7-1.8c-1.9,0.3,0.2,2.3-1.8,2.2c-0.1,0.9,1.4,0.3,1.1,1.4
		c-0.6-1.1-1.4,1.3-0.7,1.4c0,0.9-1.2,0.7-2.2,0.7c0.2-0.5,0.8-0.7,1.4-0.7c-0.1-1.3-2.8-0.1-2.2-2.2c-1.4,0.6,0.9,1.5-1.4,1.8
		c0.3,0.3,0.7,0.5,1.1,0.7c-0.2,0.4-0.5,0.7-1.1,0.7c0.1,0.5,1.5,0.7,0,0.7c0.2,0.5,0.6,0.9,1.1,1.1c-0.2,0.5-0.5-0.1-1.1,0
		c-0.8-0.1-0.2,1.3-0.4,1.8c0.4-0.2,0.4-0.8,1.1-0.7c0.3,1.1-0.4,1.3-0.4,2.2c-0.6,0-1.4-0.2-1.4,0.4c-0.6-0.3-0.1-0.7,0-1.1
		c-1.7-0.2-2.1,0.8-3.6,0.7c0.2-0.3,0.4-0.6,0.4-1.1c-1,0.9-1.4,0.2-2.5,0.7c1.5,1.6-0.7,0.7-1.1,2.2c-1.8-0.8-2.2-3.1-4-4
		c0.6,1.4,0.6,0.4,0,1.8c-0.1-1.1-1.7-1.8-1.1-2.5c-1.2,0.3-0.7,0.3-1.4-0.4c-0.4,0.1-0.3,0.7-0.4,1.1c0.1,0.9,0.6-0.5,1.4,0
		c0.3,0.3,0.2,1,0.7,1.1c0.1,0.6-1.4,0-1.1-0.7c-2,0.8-0.2,1.3-2.2,2.5c0-0.5,0-1,0-1.4c-0.6,0-1.4,0.2-1.4-0.4
		c-1,1.1-0.2,1.7-0.7,3.2c-1.4-0.8-1.6-0.7-3.6-1.1c0.7,1.3-0.2,1.6-0.7,2.5c-1.6-1.5-1.3,0.3-2.5,0.7c-0.4-0.2-0.7-0.5-0.7-1.1
		c-0.8,0.1-1.4,0.6-2.5,0.4c-0.3,0.3-0.1,1.1-0.4,2.2c-1.4,0.1-1.3-1.3-1.8-2.2c-1.4,0.4-2.7,0.3-3.6,0.4c0.2-0.6,1.1-0.3,0.7-1.4
		c-0.3-0.6-1.3-0.7-1.8-1.1c-0.4,0.4-0.7,0.7-1.1,1.1c-0.7,0,0.6-1.4-0.7-1.4c-0.9,0.3,0.2,2-1.4,2.2c0.1-0.4-0.1-0.6-0.4-0.7
		c0.3-0.3,0.7-0.5,1.1-0.7c0-1.3-1.2,0.8-1.1-0.4c-0.6-1.4,1.6-0.1,1.4-1.1c-0.2-1.1-0.8,0.3-1.4,0c0.9-1.1,1.4-2.2,1.4-3.2
		c-1.1-0.3-0.7,1-1.8,0.7c-0.1-1.4,0.5-3.1-1.1-2.2c0.1-0.5,0.6-0.6,0.7-1.1c0-0.7-0.2-1.2-0.7-1.4c-1,0.3,1.1,0.8,0,1.4
		c-1.7-0.2-2,0.6-2.5,0.7c-0.9-0.1,0.5-0.6,0-1.4c0.4,0,0.7,0,1.1,0c-0.7-1,0.6-0.9,2.5-1.1c6-0.6,17.6-2.6,20.9-2.9
		c0.4,0.4,0.7,0.7,1.1,1.1c0.6-0.1,0.8-0.6,0.7-1.4c0.7,0.2,2.5-0.6,2.2,0.7c-1.5-0.9-0.8,0.7-1.4,1.4c-1.3,0.7-1.2-0.3-2.2-0.7
		c-0.2,1.7,2,1.1,2.2,2.5c0.2,1.1-1,1-1.1,1.8c-1.3-0.9,0.7-0.6,0.7-1.1c0.1-0.7-1.5-0.6-0.7-1.4c-1.1-0.3-0.4,1.2-1.8,0.7
		c0.3,0.6,1,0.9,0.7,2.2c-0.8,0.2-1,1.6-1.8,0.7c0.3,0.3,0.4,0.8,0.4,1.4c0.4,0,0.7,0,1.1,0c0.9,0.1-0.2-1.6,1.1-1.1
		c0,0.7-0.2,1.2-0.7,1.4c0.3,0.5,0.9,0.8,1.8,0.7c0.8-0.1-0.5-1,0.7-1.1c-0.1-0.5-1.1-0.5-1.1,0c-0.7,0,0.2-1.7,0.7-0.7
		c-0.5-2.1-2.2,0.1,0-1.4c0.2-0.1-0.6-0.5-0.7-0.4c0.5-1.1,1.9,0.7,2.5-0.4c-1.4-0.8,0.5-1.3,1.1-1.1c0.2-0.6-1.3-1.2-1.4-0.4
		c-0.7-0.6,1.4-1.5,1.8-0.4c-0.2-0.3-0.4-0.6-0.4-1.1c-0.9,0.1-1.7,0.1-1.8-0.7c-0.9-0.7,0.4,0.2,0.7,0.4c0.4-0.2,0.4-0.8,1.1-0.7
		c0-0.7-1-0.5-0.7-1.4c3.4-0.7,10.7-1.5,14-2.2c-0.4-7.7-2-14.3-2.5-22c0.4,0.2,0.4,0.8,1.1,0.7c-1.1,1.2-0.3,1.2,0.7,1.4
		c0.6-0.3,0.7-1.3,1.1-1.8c-0.2-0.5-0.5,0.1-1.1,0c0-0.7,1.2-0.2,1.1-1.1c1.3,0.6,3.3,1.3,4.3,1.1c-0.5,0.7,0.3,2.4,1.1,2.9
		C199.3,96.3,198.4,98.7,199.7,97.4z M199.7,106.7c-0.4,0-0.9,0.1-0.7,0.7C201.4,107.6,198.5,104.3,199.7,106.7z M195,99.5
		c-0.5-1.4,1-0.7,0.7-1.8c0-0.6-0.9-0.3-0.7-1.1c0.6-0.2,1.5-0.2,1.8-0.7c-0.3-0.8-1.5-0.6-2.2-1.1C193.6,96.3,194.7,97.7,195,99.5z
		 M204.7,98.1c-0.4-0.5-0.3-1.6-1.4-1.4c0,0.4,0,0.7,0,1.1C204.3,97.3,205.5,99,204.7,98.1z M196.1,98.1c0,0,0.4,0,0.4,0
		C197.6,100,196.3,96.9,196.1,98.1z M205.1,99.2c0.7-0.3,1.2,1.1,1.4,0c-0.9,0.1,0.2-1.6-1.1-1.1C205.5,98.6,205.3,98.9,205.1,99.2z
		 M200.1,102.8c-0.1-0.5,0.1-1.3-0.4-1.4c-0.5,1.1-1.5-0.4-1.1-1.4c-0.5,0-1,0-1.4,0C197.6,102.1,198.8,101.3,200.1,102.8z
		 M195.4,102.8c2.1,0.3,1.5-2.3,0.7-2.5C196.3,101.6,195.3,101.6,195.4,102.8z M203.3,102.4c0,0,0-1,0-1.1
		C202.2,100.3,202,103.7,203.3,102.4z M203.3,100.6c0.1,1.1,0.8,1.6,1.1,2.5c-0.8-0.8-0.8,0.1-0.7,1.1c1.3-0.1,1-1.6,1.4-2.5
		C204.5,101.4,204,100.8,203.3,100.6z M200.8,102c0,0.2,0,0.5,0,0.7c0.9,0.6,1.1-1.2,0.4-1.1C201.1,101.9,201.1,102.1,200.8,102z
		 M196.1,110.3c0-0.5-0.2-0.8-0.4-1.1c1.2,0.3,0.6-0.7,0-0.7C195.6,109.4,195,110.1,196.1,110.3z M196.8,112.8
		C195.3,114.4,198.3,111.3,196.8,112.8L196.8,112.8z M197.5,115.7c0.1-0.8-0.1-1.4-0.7-1.4C196.7,115.1,196.9,115.6,197.5,115.7z
		 M197.9,117.2c0-0.6-0.3-0.9-0.7-1.1C196.7,116.6,196.7,117.5,197.9,117.2z M179.2,119c0.4,0.1,0.4,0.6,0.4,1.1
		c1.3,0.4,1.2-0.8,1.8-1.1c0.1,0.4-0.1,1,0.4,1.1c0.2-0.6,1.1-0.3,0.7-1.4C181.1,119.3,180.6,118.1,179.2,119z M192.5,119.7
		c0.5,0,1,0,1.4,0c-0.1,0.9-0.1,1.7,0.7,1.8C195.8,119.9,193.5,118,192.5,119.7z M172.7,121.1c0.2,0,0.5,0,0.7,0c0-0.2,0-0.5,0-0.7
		c-0.2,0-0.5,0-0.7,0C172.7,120.6,172.7,120.9,172.7,121.1z M155.1,126.2c0.6,0,0.3,0.9,1.1,0.7c-0.5-1.4,2.2-1.4,0.7-2.5
		c0,0.6-1,0.2-1.1,0.7C156.9,126,155,125.9,155.1,126.2z M190.7,127.2L190.7,127.2"/>
	<path class="st0" d="M153.3,126.9c0.8,0.2-0.5,1.4-0.4,2.2c-1,0.1-2.7-0.5-2.2,1.1c-1.6-1.3-0.3-1-0.7-4.3
		c-1.8,0.7-0.2-0.4-1.4-1.1c-0.6,0.2-0.2,0.8,0.4,0.7c-1.6,1.8-0.9-1.5-2.2-2.2c0.6-0.1,0.6,0.3,1.1,0.4c-0.1-1.6-0.6-0.7-1.8-0.7
		c0,0.6,0.4,0.8,0.4,1.4c-1,0.3-0.9-0.5-1.8-0.4c0,1,1.1,0.8,1.1,1.8c-1.1-0.2-1.6,0.3-1.4,1.4c0.3-0.3,0.5-0.7,0.7-1.1
		c0.3,0.2,0.6,0.3,0.7,0.7c1,0.4-0.6,0.4-0.4-0.4c-0.7,0.1-0.3,1.3-1.1,1.4c-0.1,0.9,1.4,0.3,1.1,1.4c-0.6,0.1-0.6-0.3-1.1-0.4
		c0.4,0.4,0.3,0.7-0.4,0.7c0.5,0.7,1.4-0.6,1.1,1.4c1.3,0,1,0.4,2.2,0c0.9,0.3-1.4,0.4-1.1,1.4c-0.4-0.1-0.2-0.4,0-0.4
		c-0.4-0.5-1.4-0.5-1.4-1.4c-1.1-0.3-0.5,1.3-0.4,1.1c-0.3,0.7-1.7,0.3-1.1,1.8c-0.3,0.7-0.4-0.2-0.4-0.7c-1.4,0.1-1.7,1-2.5,0.4
		c-1.2,0.3,0,0.8-0.7,1.4c-0.9,0-0.9-1.3-0.4-1.8c-0.3-0.5-0.5-1.1-1.4-1.1c-0.9-0.1,0.2,1.6-1.1,1.1c0.7-0.9-0.2-1.1,0.4-2.2
		c1-0.3,0.7,0.7,1.4,0.7c1-0.1,1-1.2,1.8-1.4c-0.1-0.3-0.4-0.4-0.4-0.7c-0.8,0.1-0.7,1.2-1.8,1.1c0.1-2.4-0.5-3.2,0.4-4.7
		c-0.1-0.5-0.9-0.3-1.4-0.4c-0.2-0.7-0.8-0.9-0.7-1.8c0.8-0.1,1.4-0.6,2.5-0.4c0.2,0.8-0.2,1-0.4,1.4c0.3-0.3,0.8-0.4,1.4-0.4
		c0-1-0.6-0.7,0-1.4c1.5,0.2,2.4-0.3,3.6-0.4c-0.7,0.8,0.1,0.4,0.4,1.1c0-1.7,3.2-1.6,5-1.1c-2,2,3.1,2.7,1.8,5c0.4,0,0.7,0,1.1,0
		c-0.2-0.3-0.4-0.6-0.4-1.1c0.3-0.1,0.3,0.1,0.4,0.4C151.6,127.5,153.5,127.5,153.3,126.9z M142.1,125.4c-0.3,0.8-0.4,1.6,0,2.2
		c0.4-0.4,0.7-0.7,1.1-1.1c0.6,0.3-0.1,1.8,1.1,1.4C144.4,126.3,142.8,126.3,142.1,125.4z M142.5,128.3c0.4,0,0.4,0.3,0.7,0.4
		c0-0.6,0-1.2-0.7-1.1C142.5,127.8,142.5,128.1,142.5,128.3z M141,128.3c0,0.2,0,0.5,0,0.7c0.9,0.6,1.1-1.2,0.4-1.1
		C141.4,128.2,141.3,128.4,141,128.3z M142.5,130.5C142.8,128,141,129.3,142.5,130.5L142.5,130.5z M141.7,131.9
		c-1.1,0.2-1.5,0-1.8,0.4c0.7,0,0.5,1,1.4,0.7c0.1-0.3,0.3-0.4,0.7-0.4c0.3-0.7-0.6-2-0.7-1.1C141.6,131.6,141.8,131.6,141.7,131.9z
		"/>
	<path class="st0" d="M200.8,93.8c0.4,0.1,0.2,0.4,0,0.4c-0.1,0.8,0.1,1.4,0.7,1.4c0.7,0.2-0.4,0.6-0.4,0c-0.5,0.2-0.7,0.8-0.7,1.4
		c-0.9-1,0.2-1.6-0.4-2.9C200.5,94.2,200.7,94,200.8,93.8z"/>
	<path class="st0" d="M19,97.4c-0.3,0.1-0.3-0.1-0.4-0.4c0-0.2,0-0.5,0-0.7c0.9-0.4,1.3,1.5,1.8,0.4C21.7,98,18.9,96.6,19,97.4z"/>
	<path class="st0" d="M206.5,107.1c0.9,0.1-0.5,0.6,0,1.4C205.3,108.2,206.2,107.7,206.5,107.1z"/>
	<path class="st0" d="M207.6,108.2c0.7,0.3-0.4,1.7-0.7,2.2c-1.4,0.2-2.1-0.3-3.2-0.4c0.1-0.7,1.4-0.3,1.1-1.4
		c1.1,0,1.5,0.6,1.8,1.4C207.5,109.9,207.1,108.6,207.6,108.2z"/>
	<line class="st0" x1="201.9" y1="109.2" x2="201.9" y2="109.2"/>
	<path class="st0" d="M196.5,124.7C195.6,123.8,197.5,122.6,196.5,124.7L196.5,124.7z"/>
	<path class="st0" d="M132.7,124c0.3,0.2,0.6,0.4,1.1,0.4c0,0.3-0.4,0.3-0.7,0.4c-0.2,1.1,0.7,1.1,0,1.8c-0.6-1.3-1.8,0-1.1,1.1
		c-0.6-0.1-0.8-0.6-0.7-1.4C132.3,125.9,132.7,125.2,132.7,124z"/>
	<path class="st0" d="M118,128.7c0,0.6,0.3,0.9,0.7,1.1c-0.6,1-1.3-1.1-1.8-1.4c-1.9,1.3-0.7,2.4-3.6,1.8c-0.1,0.4,1,1.2,1.1,0.4
		c0.7,0.6-1.2,2.2-2.2,1.4c-0.2,1.1,1.1,0.8,0.7,2.2c0.4,0.1,0.6-0.1,0.7-0.4c0.7,0.7-0.5,0.9-0.4,1.8c-0.7-0.1-0.2-1.2-0.7-1.4
		c-0.1,0.6-0.4,2.9-2.2,2.9c-0.7-0.3,0.2-0.4,0.7-0.4c0.1-0.6-0.3-0.6-0.4-1.1c-1.6,0.2-2.7,0.9-4,1.4c0.2-1.3,1.6-1.3,1.4-2.9
		c0.7,0.1,0.2,1.2,0.7,1.4c0.6-0.5,0-0.8,0-2.2c-1.2,0.6-1.8,1.8-2.9,2.5c-0.8-1-1.1-1-2.5-0.7c-1,0.5-0.3,2-0.7,2.2
		c-1.9-0.1,0.8-1.6-0.4-2.2c-0.9-0.1,0.2,1.6-1.1,1.1c0-0.6-0.4-0.8-0.4-1.4c-1.1,0.4-2,0.9-2.2,2.2c-0.7-0.6-0.5,0-1.4,0
		c-0.2-0.8,0.7-0.5,0.7-1.1c-0.3-0.5-1.2-0.5-1.8-0.7c-1,0.9-0.4,1.2-1.4,2.2c-1.6-2-3.9,0.4-5-1.4c-0.6,0.1-0.8,0.6-0.7,1.4
		c-0.8-0.4-2-0.4-2.5-1.1c-1.1-0.2-0.8,1.1-2.2,0.7c0,1.1,1.1,1,0.7,2.5c-1.1-0.1-2.2-1-2.9-0.4c1.2,0,0.3,1.2-1.1,1.4
		c0-0.5,1.5-1.1,0-1.1c0.3-0.8,1.4-0.8,1.4-1.8c-0.3-1.1-1-0.9-0.4-2.2c-1.3-0.3-0.8,2.4,0,2.2c-0.3,0.8-2,0.1-2.2,1.1
		c-0.8-0.1,0-1.3,0.4-1.4c-0.8,0.2-0.8-1.3-2.5-1.1c-0.6-0.7-1-2.5,0.4-2.9c-0.2-1.1-0.8,0.3-1.4,0c-0.9,0.9-1,2.5-1.8,1.8
		c0,0.4,0,0.7,0,1.1c1.1-0.6,3.2-0.8,2.5,0.7c-1-1-2.3-0.5-2.9,0.7c-0.8,0.2-1.3-2.5,0-2.2c-1.6-1,0.6-1.8-0.7-2.9
		c0.8,1,2-0.6,2.9,0.4c1.1-0.2-0.3-0.8,0-1.4c12.6-2,26-3.2,38.5-5.4c1-0.3,0.7,0.7,1.4,0.7c-0.1-0.7,1.1-1,2.5-1.1
		c0.3,0.3,0.4,0.8,0.4,1.4c1.2-0.4,0-2.3,1.4-0.7c0.5-0.2-0.1-0.5,0-1.1c2.1,0.4,4.6-1.3,5.8,0.4c0.5-0.2-0.1-0.5,0-1.1
		c1.5,0.3,1.8-0.6,3.2-0.4c-1.2,1.1,1.1,0.1,0.7,1.4c-0.6,0-1.2,0-1.8,0c0.3,1.2,0.7,0.2,1.8,0.4c1.1,2-1,3.5,0.4,4.3
		c-1.1,1.3-2.1-0.5-2.9-0.7c0.4-0.8,1-1.4,1.8-1.8c-0.2-0.3-0.4-0.6-0.4-1.1c-0.8,0.5-1,1.7-1.8,0.4c-1.2,0.5,0.7,0.9,0.4,1.8
		c-1.1-0.3-0.4,1.2-1.8,0.7c0-0.3,0.4-0.3,0.7-0.4c-0.3-0.7-1.1-0.2-0.4-1.1c-0.9-0.1-1.8-0.1-1.4,1.1c-0.4-0.2-0.4-0.8-1.1-0.7
		c0.9-1.4-0.2-1.6-1.8-1.4c-0.1-0.4,0.9-0.7,0.7-1.1c-0.2-0.3-1.9,2-1.4,1.8c-0.4,0.2-0.2-0.7-0.4-0.7
		C120.4,126.9,118.7,128.3,118,128.7z M125.2,125.4C124.1,126.7,126.5,126.5,125.2,125.4L125.2,125.4z M127,127.6
		c-0.6-0.1-0.2-0.8,0-1.1C125.5,125.9,126.5,129.2,127,127.6z M118.7,126.9c-1-0.2-0.7,0.7-1.1,1.1c0.4,0,0.7,0,1.1,0
		C118.7,127.6,118.7,127.2,118.7,126.9z M113.7,131.2c-0.4,0-0.4-0.3-0.7-0.4c0,0.4-0.3,0.4-0.4,0.7c0.4,0,0.4,0.3,0.7,0.4
		C113.3,131.6,113.6,131.5,113.7,131.2z M111.5,134.8c-0.6-0.1-0.2-0.8,0-1.1c-0.7,0-1.4,0-2.2,0c0.2,0.6,0.2,1.5,0.7,1.8
		C110.4,134.5,111.4,135.4,111.5,134.8z M78.4,134.8c0.4,0,0.7,0,1.1,0c0-0.7-0.2-1.2-0.7-1.4C78.6,133.9,78.2,134.1,78.4,134.8z"/>
	<path class="st0" d="M79.1,137.3c0.9,0.3-0.8,1.1-1.4,1.1c0.3,0.4-1.5,2.6-1.8,0.4c0.5,0,1,0.1,1.1-0.4c-0.5-0.2-0.7-0.4-1.8-0.7
		c0.7-2,2.1,1.1,2.9-0.7c0.6,0.3,0.1,0.7,0,1.1C78.3,137.7,79,137.8,79.1,137.3z"/>
	<path class="st0" d="M19,125.8C15.5,125.3,20.5,125.8,19,125.8L19,125.8z"/>
	<path class="st0" d="M134.5,125.8c-0.2,0.9-0.9,1.3-1.4,1.8C132.3,127.2,134.1,126.2,134.5,125.8z"/>
	<path class="st0" d="M120.5,127.6c1.2,0.4-0.4,0.7-0.4,1.1C119.1,128.5,120.7,128.1,120.5,127.6z"/>
	<path class="st0" d="M132,129.4c0.1-0.5,0.7-0.4,0.7,0c0.7-0.1,0.3-1.4,1.4-1.1c0.1,0.3-0.1,0.3-0.4,0.4c0.1,0.4,0.7,0.2,0.7,0.7
		C135.5,129.5,132.4,129.8,132,129.4z"/>
	<path class="st0" d="M134.2,130.1c0.6,0.1,1.8-0.4,1.4,0.7c-1.2-0.9-2,1.2-1.8,2.9c1,0,0.7-0.6,1.4,0c0,1.1-0.1,2-1.4,1.8
		c0.3-0.3,0.4-0.8,0.4-1.4c-1,0.9-1,0.7-2.2,1.1c-1,0.1,1-1.4-0.7-1.1c0.4-1.4,0.9-0.1,1.4,0.4c0.4-0.3,0.1-0.7,0.4-1.8
		c-0.1-0.9-0.6,0.5-1.4,0c-0.4-0.9,1.1-1.7,0-2.2c1-1.6,0.2,1.7,1.4,1.1C132,130.1,134.5,132.1,134.2,130.1z"/>
	<path class="st0" d="M151.8,130.8c0.2-0.5,0.5,0.1,1.1,0c0.1,0.6-0.4,1.8,0.7,1.4c0.1,0.8-1,0.4-1.1,1.1c-0.5-0.1-0.4-0.7,0-0.7
		c-0.4-1-1,0.5-1.4-0.4C151.9,131.8,153.2,131.8,151.8,130.8z"/>
	<path class="st0" d="M126.3,133.7c0.5-0.5,0.6-1.6,0.7-2.5c1.7,0.6-0.3,1.2,0,2.5c-0.1,1,1.4-1,1.1,0.7c-1.4,0.2-2.5-1.1-2.2,1.1
		c-0.4-0.1-0.6,0.1-0.7,0.4c-0.8-0.6-0.9-2-2.5-1.8c0.5-1.1,1.8-0.4,2.2,0.4C125.4,134.3,125.7,133.9,126.3,133.7z"/>
	<path class="st0" d="M129.1,133.7c0.5-0.1,0.4-0.7,0-0.7c0-1.3,1.2,0.8,1.1-0.4c0.6,0.1-0.3,0.6,0.4,0.7c-0.2,0.5-0.8,0.7-1.4,0.7
		c-0.8-0.7-0.8-1.8-0.4-2.9C129.7,131.9,128.3,132.8,129.1,133.7z"/>
	<path class="st0" d="M61.5,133.7c0.4-1.2,0.7,0.4,1.1,0.4c0.5,0.8-0.9,1.4,0,1.4c-0.2,1-0.6-0.6-1.1-0.4
		C62,135.3,62.8,134.2,61.5,133.7z"/>
	<path class="st0" d="M58.6,134.1c1.4-0.1,0.1,0.3,0.4,1.1c0.6-0.1,1.8,0.4,1.4-0.7c0.9,0.1,0.3,1.6-0.7,1.1c0,0.9,0.5,1.4,1.4,1.4
		c-0.3,1-0.5,0.4-1.4,0.4c0,0.2,0,0.5,0,0.7c0.6,0.5,2.4-0.4,1.4,1.4c0.2,0,0.5,0,0.7,0c0.5,0,0.8-2.7-0.4-2.2
		c0.1-0.5,0.9-0.3,1.4-0.4c0.1,0.9-0.7,0.8-0.4,1.8c0.2,0.5,0.6,0.9,1.1,1.1c0.3-0.1,0.4-0.4,0.7-0.4c-0.2-0.7-0.8-0.9-0.7-1.8
		c1.4,0.9,0.5-0.4,1.4-1.1c0.5,0.1,0.6,0.6,1.1,0.7c-0.7,0.3-1,0.9-1.8,1.1c0.2,0.5,0.6,0.9,1.1,1.1c0.3-0.2,0.5-1,0.7-0.4
		c0.8-0.2-0.4-0.6,0.4-1.1c0.4,0.3,1,0.5,1.8,0.4c-0.1,0.7-1,0.7-1.4,1.1c0.9,0.9,0.2,1.2,0.7,2.5c1.1-0.2,0.5-1,0.4-1.8
		c1,0.3,0.9,1.7,2.5,1.4c0,0.7-1,0.5-0.7,1.4c-1,0.2-0.7-0.7-1.1-1.1c-0.1,1-0.7,1.7-0.4,2.9c-0.3,0.1-0.3-0.1-0.4-0.4
		c-0.1-0.5-0.9-0.3-1.4-0.4c1.9-0.8-1.1-2.7,0.7-3.6c-0.5-1-1.9,0-1.8,0.7c-0.8-0.3-1.6-0.6-2.2-1.1c-1.8,0.3-0.7,1.4-0.7,2.5
		c-0.9-1.1-1,2,0,1.8c0.1,0.8-1.3,0.2-1.8,0.4c0-0.6,0.4-0.8,0.4-1.4c-0.9-0.3-1.4-1-2.5-1.1c0.3,0.5,0.3,1.4,1.4,1.1
		c0.2,1.5-2.3,1.5-2.5,1.4c0,0,0-0.7,0-0.7c-2.1,0.3-4,0.9-5.8,2.5c0,0.1-0.4-2.4-2.5-2.2c-0.4,0.4-0.7,0.7-1.1,1.1
		c-1.2-0.3,0-0.8-0.7-1.4c-0.3,0.3-0.5,0.7-0.7,1.1c-1.1-2.6-3.6,0.5-4.3-1.8c-0.8,0.1-1.6,0.4-1.8,1.1c-0.4-0.2,0.3-1.7-0.4-2.5
		c1.1,0.3,1.1-0.6,1.8-0.7c-0.3-1-1.3,0.6-1.8-0.4c-0.1,1.5-1.3,1.8-0.4,3.2c-0.3-0.2-0.6-0.4-1.1-0.4c-0.6-2.3-0.3-3.7-1.1-6.1
		c-0.9,0-1.1,0.7-1.8,0c-0.4,0.4-0.7,0.7-1.1,1.1c-1.3-0.1,0-1-0.7-1.1c0.3,0.1,3.6-1.9,2.9-0.4c4.7-1.9,11.5-1.7,16.9-2.9
		c-0.7,0.6,0.1,1.1,0.7,1.4c0.7-0.1,0.1-1.6,0.7-1.8C56.7,133.8,58.7,135.2,58.6,134.1z M52.8,134.8C51.7,136,54.2,135.9,52.8,134.8
		L52.8,134.8z M53.5,135.9c0.5,1.3,0.9,2.2-0.4,2.5c0.9-0.1,0.3,1.4,1.4,1.1C53.9,138.3,55.6,136.1,53.5,135.9z M55.3,135.9
		c1.5-0.3,1.2,1.2,1.4,2.2c-0.5-0.4-0.9-0.4-1.1,0.4c0.5-0.2,1.9,0.4,1.8-0.4c-1.3-0.7,1.9-1.9,0.7-2.5c-1.6,1.8,0-0.9-1.1-0.7
		C57.1,137.1,55.7,134.1,55.3,135.9z M39.5,139.1c0-0.8,1.6-1.7,0.7-2.2C40.3,137.8,38.5,138.5,39.5,139.1z M41.7,139.1
		c0.1-0.4,0.6-0.8,0-1.1C41.6,138.5,41,138.9,41.7,139.1z M61.5,141.3c-0.1-0.6,0.5-0.9,0-1.1c0,0.2-0.1,0.4-0.4,0.4
		c0-0.6-0.3-0.9-0.7-1.1c-0.3,0.3-0.8,2.3,0,2.5C60.9,141,60.3,140,61.5,141.3z M58.9,140.2c-0.5,0-1,0-1.4,0
		C57.2,141.6,59.2,141.6,58.9,140.2z"/>
	<path class="st0" d="M64.7,141.3c0.1,0.6-1.7,1.4-0.7,0.7c-0.1-0.5-0.7-0.4-0.7,0c-0.5-0.2,0.1-0.5,0-1.1
		C63.9,140.9,64,141.4,64.7,141.3z"/>
	<path class="st0" d="M126.3,135.5c0.6,0.1,0.7-0.3,0.7-0.7c1,0.1,0.8,1.2-0.4,1.1c0.1,0.3,0.4,0.4,0.4,0.7
		C126.8,137.5,126.2,136,126.3,135.5z"/>
	<path class="st0" d="M64.7,135.5c-1-0.5,2.3-0.2,1.8,1.1c-0.3,0.1-0.3-0.1-0.4-0.4C66.1,135.6,64.9,136,64.7,135.5z"/>
	<path class="st0" d="M71.2,136.2c-0.6,0-0.9,0.3-1.1,0.7c-1.1-1.1,1-1.9,1.4-0.7C71.5,136.7,71.2,136.4,71.2,136.2z"/>
	<path class="st0" d="M73,136.2c0.4-0.7,0.2,1.5,0,1.8c-0.7-0.7-1.3-0.1-2.2,0C71.6,136.3,72.6,137.9,73,136.2z"/>
	<line class="st0" x1="28.7" y1="138" x2="28.7" y2="138"/>
	<path class="st0" d="M69.4,138c0.6-1.3-0.1,1.5,1.1,0.7c-0.1,0.3-0.4,0.4-0.4,0.7c-0.2,0-0.5,0-0.7,0C70,138.8,69.3,139,69.4,138z"
		/>
	<path class="st0" d="M71.2,139.1c0.9-1,2.9-0.1,3.2,0.7C74.1,140.3,72.5,138.9,71.2,139.1z"/>
	<path class="st0" d="M22.9,99.9c0.7,0.5,1.4-0.2,1.1,1.8c-1.9-0.5-1.7-3.1-3.6-3.6c-0.2-1.1,1.8-0.1,1.4-1.4c1-0.2-0.3,2,0.7,1.8
		c0.8-0.6,0.1-2.1,0-2.2c-0.1-0.3,0.1-0.3,0.4-0.4c0.3,0.1,0.3-0.1,0.4-0.4C23.2,96.3,24.9,99.5,22.9,99.9z"/>
</g>
<g>
	<path class="st1" d="M32.8,52.3l6.5-0.9l0.4,3c-0.7,0.6-1.2,1.2-1.6,2c-0.6,1.2-0.8,2.6-0.9,4.2l0,1.5c0,0.5-0.1,0.9-0.4,1.2
		c-0.2,0.3-0.6,0.5-1,0.6c-0.4,0.1-0.8,0-1.1-0.3c-0.3-0.3-0.5-0.6-0.6-1.1L32.8,52.3z M52.3,49.6l4.1,29c0.1,0.6,0.3,1.1,0.6,1.3
		c0.2,0.1,0.3,0.2,0.4,0.3c0.1,0,0.5,0.1,1.2,0.1c0.8,0.1,1.3,0.5,1.4,1.2c0.1,0.4-0.1,0.8-0.5,1.1c-0.3,0.2-0.8,0.4-1.5,0.5
		L57,83.2l-11,1.6l-0.8,0.1c-0.7,0.1-1.3,0.1-1.7-0.1c-0.4-0.2-0.6-0.5-0.7-0.9c-0.1-0.7,0.2-1.2,1-1.5c0.6-0.3,1-0.4,1.1-0.5
		c0.1-0.1,0.2-0.2,0.3-0.4c0.2-0.3,0.3-0.8,0.2-1.4l-4.1-29L52.3,49.6z M60.8,48.4l1.4,10.1c0.1,0.5,0,0.9-0.2,1.2
		c-0.2,0.3-0.6,0.5-1,0.6c-0.4,0.1-0.8,0-1.1-0.3c-0.3-0.2-0.5-0.6-0.7-1l-0.5-1.5c-0.5-1.5-1.1-2.8-2-3.8c-0.5-0.6-1.2-1.1-2-1.4
		l-0.4-3L60.8,48.4z"/>
	<path class="st1" d="M77.3,46l4.7,33.7l-11,1.5l-0.6,0.1c-0.6,0.1-1.1,0-1.4-0.1c-0.4-0.2-0.6-0.5-0.6-0.9
		c-0.1-0.7,0.2-1.2,0.8-1.5c0.5-0.3,0.8-0.4,0.9-0.5c0.1-0.1,0.2-0.2,0.2-0.3c0.2-0.3,0.2-0.7,0.1-1.3L67,52.1
		c-0.1-0.6-0.2-1-0.5-1.2c-0.1-0.1-0.2-0.2-0.3-0.2c-0.1,0-0.4-0.1-1-0.2c-0.7-0.1-1.1-0.5-1.2-1.2c-0.1-0.4,0.1-0.8,0.3-1
		c0.3-0.3,0.7-0.4,1.3-0.5l0.6-0.1L77.3,46z M79.5,45.7l9.9-1.4l1.2,8.7c0.1,0.5,0,0.9-0.1,1.2c-0.2,0.3-0.5,0.4-0.9,0.5
		c-0.4,0.1-0.6,0-0.8-0.1c-0.2-0.1-0.4-0.4-0.6-0.8c-0.9-1.8-2-3.1-3.4-4c-1.4-0.8-3-1.2-5-1.1L79.5,45.7z M81.9,63.7l-0.4-2.9
		c0.9-0.6,1.5-1.2,1.9-1.8c0.4-0.6,0.6-1.4,0.7-2.3c0-0.6,0.2-1.1,0.3-1.4c0.2-0.3,0.5-0.4,0.9-0.5c0.5-0.1,0.9,0.1,1.2,0.5
		c0.1,0.2,0.3,0.7,0.4,1.4l1.3,9.4c0.1,0.8,0.1,1.3,0,1.6c-0.1,0.3-0.4,0.5-0.9,0.6c-0.4,0.1-0.7,0-0.9-0.2
		c-0.2-0.2-0.5-0.6-0.7-1.1c-0.4-1.1-1-1.9-1.6-2.4C83.5,64.1,82.8,63.8,81.9,63.7z M84.3,79.4l-0.4-2.7c1-0.3,1.9-0.7,2.6-1.1
		c0.7-0.4,1.3-0.9,1.9-1.7c0.6-0.7,1.1-1.4,1.4-2.1c0.3-0.7,0.6-1.6,0.8-2.7c0.1-0.6,0.2-0.9,0.4-1.2c0.2-0.2,0.4-0.3,0.8-0.4
		c0.5-0.1,0.8,0,1,0.3c0.2,0.2,0.4,0.7,0.5,1.4l1.2,8.7L84.3,79.4z"/>
	<path class="st1" d="M102.6,48.9l2,4.9l-2.1,16.6c-0.1,0.5-0.1,0.9,0,1.3c0.1,1,0.7,1.7,1.8,2l0.9,0.3c0.6,0.2,0.9,0.5,1,1.1
		c0.1,0.8-0.4,1.3-1.6,1.5l-6.3,0.9c-0.6,0.1-1.1,0-1.5-0.2c-0.4-0.2-0.6-0.5-0.7-1C96,75.8,96.3,75.4,97,75c0.6-0.4,1.1-0.7,1.4-1
		c0.3-0.3,0.6-0.7,0.8-1.1c0.4-0.7,0.6-1.7,0.8-2.9L102.6,48.9z M103.4,42.4l9.9-1.4l10.9,28c0.2,0.5,0.4,0.9,0.6,1.3
		c0.2,0.3,0.6,0.5,1.1,0.6c0.5,0.1,0.8,0.3,1,0.4c0.2,0.2,0.3,0.4,0.4,0.7c0.1,0.9-0.5,1.4-1.7,1.6l-12.3,1.7
		c-0.5,0.1-0.9,0-1.2-0.2c-0.3-0.2-0.5-0.5-0.6-0.9c0-0.3,0-0.6,0.1-0.8c0.1-0.2,0.4-0.4,0.8-0.7c0.3-0.2,0.5-0.4,0.6-0.6
		c0.1-0.2,0.1-0.5,0.1-0.8c0-0.3-0.1-0.5-0.2-0.7l-1.3-3.5l-6.9,1l0.3-3l5.5-0.8l-7.4-19.4L103.4,42.4z"/>
	<path class="st1" d="M137.8,37.5l6.8,13.2l1.1-7.8l1.2,8.2l-3,19.9l-1.3,0.2L129,44.1c-0.5-0.9-0.9-1.5-1.3-1.8
		c-0.2-0.2-0.6-0.3-1.2-0.3c-1.1-0.1-1.7-0.5-1.8-1.3c-0.1-0.4,0-0.8,0.3-1.1c0.3-0.3,0.7-0.5,1.3-0.5L137.8,37.5z M129.8,50.2
		l3.7,7.1l1,7.4c0.1,0.8,0.2,1.3,0.3,1.6c0.1,0.3,0.3,0.7,0.5,1c0.4,0.7,1,1.2,1.7,1.4l1,0.5c0.7,0.3,1,0.7,1.1,1.1
		c0.1,0.8-0.4,1.3-1.7,1.5l-6.2,0.9c-1.2,0.2-1.9-0.2-2-1c0-0.3,0-0.5,0.1-0.6c0.1-0.2,0.3-0.3,0.6-0.6c1.7-1.2,2.4-3.1,2-5.5
		L129.8,50.2z M146.9,36.2l11-1.5l0.7-0.1c1.2-0.2,1.9,0.2,2,1c0.1,0.7-0.2,1.2-0.8,1.5c-0.5,0.3-0.8,0.4-0.9,0.5
		c-0.1,0.1-0.2,0.2-0.2,0.3c-0.2,0.3-0.2,0.7-0.1,1.3l3.5,24.7c0.1,0.6,0.2,1,0.5,1.2c0.1,0.1,0.2,0.2,0.3,0.2c0.1,0,0.4,0.1,1,0.2
		c0.7,0.1,1.1,0.5,1.2,1.2c0.1,0.9-0.4,1.4-1.7,1.5l-0.7,0.1l-11,1.5l-0.8,0.1c-0.7,0.1-1.3,0.1-1.7-0.1c-0.4-0.2-0.6-0.5-0.7-0.9
		c-0.1-0.7,0.2-1.2,1-1.5c0.6-0.3,1-0.4,1.1-0.5c0.1-0.1,0.2-0.2,0.3-0.3c0.2-0.3,0.3-0.8,0.2-1.5L146.9,36.2z"/>
</g>
<g>
	<path class="st1" d="M49.6,88.8l4.1,29c0.1,0.6,0.3,1.1,0.6,1.3c0.2,0.1,0.3,0.2,0.4,0.3c0.1,0,0.5,0.1,1.2,0.1
		c0.8,0.1,1.3,0.5,1.4,1.2c0.1,0.4-0.1,0.8-0.5,1.1c-0.3,0.2-0.8,0.4-1.5,0.5l-0.8,0.1l-11,1.6l-0.6,0.1c-0.6,0.1-1.1,0-1.4-0.1
		c-0.4-0.2-0.6-0.5-0.6-0.9c-0.1-0.7,0.2-1.2,0.8-1.5c0.5-0.3,0.8-0.4,0.9-0.5c0.1-0.1,0.2-0.2,0.2-0.3c0.2-0.3,0.2-0.7,0.1-1.3
		l-3.5-24.7c-0.1-0.6-0.2-1-0.5-1.2c-0.1-0.1-0.2-0.2-0.3-0.2c-0.1,0-0.4-0.1-1-0.2c-0.7-0.1-1.1-0.5-1.2-1.2
		c-0.1-0.4,0.1-0.8,0.3-1c0.3-0.3,0.7-0.4,1.3-0.5l0.6-0.1L49.6,88.8z M54.6,109.2l-0.4-2.6c0.7-0.3,1.2-0.5,1.4-0.7
		c0.3-0.2,0.5-0.5,0.6-0.9c0.3-0.7,0.3-1.6,0.2-2.7l-1.1-7.9c-0.1-0.8-0.2-1.3-0.4-1.7c-0.2-0.4-0.4-0.7-0.8-0.9
		c-0.5-0.4-1.2-0.6-2-0.6l-0.4-2.7c3.4-0.5,5.9-0.5,7.6-0.1c2,0.5,3.6,1.4,4.9,2.8c1.3,1.4,2.1,3.2,2.5,5.5c0.4,2.5,0.1,4.7-0.8,6.5
		c-0.9,1.8-2.3,3.2-4.2,4.2C60.1,108.2,57.7,108.8,54.6,109.2z"/>
	<path class="st1" d="M87,117.8l-11,1.6l-0.6,0.1c-0.6,0.1-1.1,0-1.4-0.1c-0.4-0.2-0.6-0.5-0.6-0.9c-0.1-0.7,0.2-1.2,0.8-1.5
		c0.5-0.3,0.8-0.4,0.9-0.5c0.1-0.1,0.2-0.2,0.2-0.3c0.2-0.3,0.2-0.7,0.1-1.3l-3.5-24.7c-0.1-0.6-0.2-1-0.5-1.2
		c-0.1-0.1-0.2-0.2-0.3-0.2c-0.1,0-0.4-0.1-1-0.2c-0.7-0.1-1.1-0.5-1.2-1.2c-0.1-0.4,0.1-0.8,0.3-1c0.3-0.3,0.7-0.4,1.3-0.5l0.6-0.1
		l11-1.6l0.6-0.1c1.2-0.2,1.8,0.2,1.9,1c0.1,0.7-0.2,1.2-0.8,1.5l-0.7,0.4c-0.5,0.2-0.6,0.8-0.5,1.7l3.5,24.7
		c0.1,0.9,0.4,1.4,0.9,1.5l0.8,0.1c0.7,0.1,1,0.5,1.1,1.2c0.1,0.9-0.4,1.4-1.6,1.5L87,117.8z M86.5,99.1l4-0.6L89,87.8
		c-0.1-0.9-0.4-1.4-0.9-1.5l-0.8-0.1c-0.7-0.1-1-0.5-1.1-1.2c-0.1-0.9,0.4-1.4,1.6-1.5l0.6-0.1l11-1.5l0.7-0.1c1.2-0.2,1.9,0.2,2,1
		c0.1,0.7-0.2,1.2-0.8,1.5c-0.5,0.3-0.8,0.4-0.9,0.5c-0.1,0.1-0.2,0.2-0.2,0.3c-0.2,0.3-0.2,0.7-0.1,1.3l3.5,24.6
		c0.1,0.9,0.5,1.4,1,1.5l0.8,0.2c0.7,0.1,1.1,0.5,1.2,1.2c0.1,0.9-0.4,1.4-1.7,1.6l-0.7,0.1l-11,1.5l-0.7,0.1
		c-1.2,0.2-1.8-0.2-1.9-1.1c-0.1-0.7,0.2-1.2,0.7-1.5l0.8-0.4c0.5-0.2,0.6-0.8,0.5-1.8L90.9,101l-4,0.6L86.5,99.1z"/>
	<path class="st1" d="M111.9,104.3l-2.7-19.3c-0.1-0.6-0.2-1-0.5-1.2c-0.1-0.1-0.2-0.2-0.3-0.2c-0.1,0-0.4-0.1-1-0.2
		c-0.7-0.1-1.1-0.5-1.2-1.2c-0.1-0.4,0.1-0.8,0.3-1c0.3-0.3,0.7-0.4,1.3-0.5l0.6-0.1l11-1.6l0.6-0.1l0.9,0c0.3,0,0.5,0.2,0.8,0.3
		c0.2,0.2,0.3,0.4,0.4,0.7c0.1,0.7-0.2,1.1-0.8,1.4c-0.5,0.3-0.8,0.4-0.9,0.5c-0.1,0.1-0.2,0.2-0.2,0.3c-0.2,0.3-0.2,0.7-0.1,1.3
		l2.9,20.7c0.2,1.4,0.4,2.4,0.5,2.9c0.2,0.5,0.4,1,0.7,1.4c0.3,0.4,0.6,0.6,0.8,0.8c0.3,0.1,0.8,0.3,1.6,0.4l0.5,3.2l-0.5,0.1
		c-2.1,0.3-3.9,0.4-5.4,0.2c-1.7-0.2-3.3-0.7-4.6-1.4c-1.4-0.7-2.4-1.5-3.1-2.6C112.7,108.1,112.2,106.5,111.9,104.3z M129.4,112.5
		l-0.5-3.2c1.6-0.4,2.9-1.3,3.8-2.6c1.1-1.5,1.4-3.4,1.1-5.9l-2.3-16.1c-0.3-2.3-1.4-3.7-3.3-4.3c-0.5-0.2-0.9-0.4-1.1-0.5
		c-0.2-0.2-0.3-0.4-0.4-0.8c-0.1-0.4,0.1-0.8,0.3-1c0.3-0.2,0.8-0.4,1.5-0.5l6-0.9c0.5-0.1,0.9-0.1,1-0.1c0.2,0,0.4,0,0.5,0.1
		c0.5,0.2,0.7,0.5,0.8,0.9c0.1,0.4,0,0.7-0.3,1c-0.1,0.1-0.4,0.4-1,0.8c-0.7,0.5-1.2,1.2-1.4,2.1c-0.3,0.9-0.4,1.8-0.2,2.9l2.3,16.1
		c0.4,2.8,0.1,5.1-0.9,7.1c-0.7,1.4-1.8,2.7-3.4,3.7C131.4,111.8,130.5,112.2,129.4,112.5z"/>
	<path class="st1" d="M154.6,74l16.3,21l1.5,10.9l-6.7,0.9l-20.8-26.5c-0.5-0.6-0.8-1-1.1-1.2c-0.3-0.2-0.6-0.4-1-0.4l-1-0.2
		c-0.3,0-0.5-0.2-0.7-0.4c-0.2-0.2-0.3-0.4-0.3-0.7c0-0.3,0-0.6,0.1-0.8c0.1-0.3,0.3-0.5,0.5-0.6c0.3-0.2,1-0.3,2.2-0.5L154.6,74z
		 M145.5,84.1l3.2,4l1.9,13.2c0.2,1.2,0.5,2.1,1,2.8c0.5,0.7,1.2,1.2,2.1,1.6l0.8,0.3c0.5,0.2,0.7,0.5,0.8,1c0.1,0.4-0.1,0.7-0.3,1
		c-0.2,0.3-0.8,0.4-1.6,0.6l-5.7,0.8c-1.5,0.2-2.3-0.1-2.4-1c0-0.3,0-0.5,0.1-0.7c0.1-0.2,0.4-0.5,0.9-0.8c1.5-1.1,2-2.8,1.7-5.1
		L145.5,84.1z M170.4,91l-3.2-4l-1-6.8c-0.2-1.4-0.5-2.4-1.1-3.1c-0.5-0.7-1.3-1.2-2.4-1.6c-0.4-0.1-0.6-0.3-0.8-0.4
		c-0.2-0.2-0.3-0.4-0.3-0.7c-0.1-0.4,0-0.8,0.3-1c0.3-0.2,0.7-0.4,1.4-0.5l6.2-0.9c0.8-0.1,1.4-0.1,1.7,0.2c0.3,0.2,0.5,0.5,0.6,0.9
		c0,0.3,0,0.6-0.1,0.8c-0.1,0.2-0.5,0.5-1,0.9c-0.8,0.6-1.4,1.3-1.7,2.3c-0.2,0.7-0.2,1.7-0.1,2.8L170.4,91z"/>
</g>
<g>
	<path class="st1" d="M177.8,72.9c0.2,1.1-0.6,2.1-1.7,2.2c-1.1,0.2-2.1-0.6-2.3-1.7c-0.2-1.1,0.6-2.1,1.7-2.2
		C176.6,71.1,177.6,71.8,177.8,72.9z M174.3,73.4c0.1,0.9,0.9,1.5,1.7,1.3c0.8-0.1,1.4-0.9,1.3-1.8c-0.1-0.9-0.9-1.5-1.7-1.4
		C174.7,71.7,174.2,72.5,174.3,73.4z M175.6,74.2l-0.5,0.1l-0.3-1.9c0.2,0,0.4-0.1,0.7-0.2c0.4-0.1,0.5,0,0.7,0.1
		c0.1,0.1,0.2,0.2,0.3,0.4c0,0.2-0.1,0.4-0.3,0.5l0,0c0.2,0,0.3,0.2,0.4,0.4c0.1,0.3,0.2,0.4,0.2,0.5l-0.5,0.1
		c-0.1-0.1-0.1-0.2-0.2-0.5c-0.1-0.2-0.2-0.3-0.4-0.2l-0.2,0L175.6,74.2z M175.5,73.1l0.2,0c0.2,0,0.4-0.1,0.4-0.3
		c0-0.2-0.2-0.3-0.5-0.2c-0.1,0-0.2,0-0.2,0.1L175.5,73.1z"/>
</g>
</svg>
